<svg xmlns="http://www.w3.org/2000/svg" xmlns:xlink="http://www.w3.org/1999/xlink" version="1.1" id="Layer_1" x="0px" y="0px" enable-background="new 0 0 768 1024" xml:space="preserve" viewBox="40.59 458.36 707.75 55.02">
<g>
	<path d="M82.111,466.873c-0.24,2.001-0.321,4-0.24,6c0.08,2.001,0.2,4.02,0.36,6.06c0.159,2.04,0.33,4.11,0.51,6.21   c0.18,2.1,0.27,4.251,0.27,6.45c0.24,0.44,0.37,0.88,0.39,1.32c0.02,0.441,0.03,0.891,0.03,1.35c0,0.46,0.02,0.91,0.06,1.35   c0.04,0.44,0.18,0.88,0.42,1.32c0.2,0.441,0.26,0.791,0.18,1.05c-0.081,0.26-0.23,0.5-0.45,0.72c-0.22,0.22-0.47,0.46-0.75,0.72   c-0.28,0.26-0.54,0.61-0.78,1.05c-0.44,0.88-0.88,1.611-1.32,2.19c-0.441,0.581-0.88,1.311-1.32,2.19   c-1.32,0.44-2.65,1.07-3.99,1.89c-1.341,0.819-2.67,1.67-3.99,2.55c-0.16,0-0.32-0.04-0.48-0.12c-0.28-0.12-0.42-0.381-0.42-0.78   c0.68-0.44,0.969-0.84,0.87-1.2c-0.101-0.36-0.34-0.73-0.72-1.11c-0.38-0.38-0.79-0.8-1.23-1.26c-0.44-0.46-0.66-1.029-0.66-1.71   c-1.8-1.32-3.38-2.68-4.74-4.08c-1.36-1.4-2.721-3-4.08-4.8l-3.54-3.54c0.24,0.88,0.339,1.81,0.3,2.79   c-0.041,0.98-0.09,1.97-0.15,2.97c-0.06,1-0.06,1.99,0,2.97c0.06,0.98,0.31,1.911,0.75,2.79c0,0.24-0.01,0.51-0.03,0.81   c-0.021,0.3-0.081,0.581-0.18,0.84c-0.1,0.26-0.27,0.489-0.51,0.69c-0.24,0.2-0.581,0.3-1.02,0.3c-0.24,0.68-0.561,1.35-0.96,2.01   c-0.4,0.66-0.82,1.32-1.26,1.98c-0.44,0.66-0.86,1.329-1.26,2.01c-0.4,0.68-0.72,1.34-0.96,1.98c-0.441,0-0.7-0.04-0.78-0.12   c-0.081-0.081-0.12-0.34-0.12-0.78v-0.84c-0.88,0-1.95,0.14-3.21,0.42c-1.26,0.279-2.55,0.42-3.87,0.42l-0.9-0.84   c0-3.12-0.011-6.321-0.03-9.6c-0.021-3.279-0.081-6.57-0.18-9.87c-0.1-3.3-0.27-6.589-0.51-9.87c-0.24-3.28-0.581-6.459-1.02-9.54   c1.32-0.92,2.39-2.18,3.21-3.78c0.819-1.599,1.23-3.3,1.23-5.1c0-0.439,0.1-0.729,0.3-0.87c0.199-0.14,0.429-0.21,0.69-0.21   c0.259,0,0.54,0.04,0.84,0.12c0.3,0.081,0.57,0.12,0.81,0.12c0.639,0,1.34-0.04,2.1-0.12c0.759-0.08,1.53-0.15,2.31-0.21   c0.78-0.06,1.539-0.08,2.28-0.06c0.74,0.021,1.449,0.15,2.13,0.39v1.74c1.12,0.68,2.18,1.54,3.18,2.58   c1,1.041,1.959,2.17,2.88,3.39c0.92,1.221,1.83,2.46,2.73,3.72c0.9,1.26,1.79,2.451,2.67,3.57c-0.44-1.32-0.59-2.54-0.45-3.66   c0.14-1.119,0.41-2.209,0.81-3.27c0.399-1.059,0.83-2.1,1.29-3.12c0.459-1.02,0.79-2.09,0.99-3.21v-1.74   c0.879-0.68,1.81-1.07,2.79-1.17c0.979-0.1,1.97-0.15,2.97-0.15c1,0,1.99-0.06,2.97-0.18c0.979-0.12,1.91-0.52,2.79-1.2   c0.439,0.441,0.69,0.94,0.75,1.5c0.06,0.561,0.03,1.14-0.09,1.74c-0.12,0.6-0.261,1.23-0.42,1.89   C82.191,465.583,82.111,466.234,82.111,466.873z M45.031,467.773c-0.24,0.441-0.51,0.88-0.81,1.32c-0.3,0.44-0.59,0.91-0.87,1.41   c-0.28,0.5-0.52,1.041-0.72,1.62c-0.201,0.581-0.3,1.191-0.3,1.83c0.439,5.361,0.739,11,0.9,16.92   c0.159,5.92,0.459,11.76,0.9,17.52c0.439-0.88,0.729-1.72,0.87-2.52c0.14-0.8,0.429-1.42,0.87-1.86c-0.44-2.88-0.73-5.85-0.87-8.91   c-0.141-3.06-0.21-6.129-0.21-9.21c0-3.08,0.039-6.15,0.12-9.21C44.991,473.623,45.031,470.653,45.031,467.773z M54.751,504.853   c-1.32-0.44-2.65-0.51-3.99-0.21c-1.34,0.3-2.67,0.669-3.99,1.11l0.9,0.9h-0.9h-0.9l-0.84,3.54c1.32,0,2.49-0.041,3.51-0.12   c1.02-0.081,2.209-0.34,3.57-0.78L54.751,504.853z M81.211,461.593c-0.681,0.24-1.431,0.34-2.25,0.3   c-0.82-0.039-1.65-0.06-2.49-0.06c-0.84,0-1.62,0.09-2.34,0.27c-0.72,0.18-1.3,0.591-1.74,1.23c0,3.12,0.15,6.221,0.45,9.3   c0.3,3.081,0.45,6.18,0.45,9.3c0,0.24,0.039,0.46,0.12,0.66c0.08,0.201,0.15,0.38,0.21,0.54c0.06,0.16,0.07,0.291,0.03,0.39   c-0.041,0.101-0.16,0.15-0.36,0.15c-0.441,0-0.791-0.1-1.05-0.3c-0.261-0.2-0.5-0.459-0.72-0.78c-0.221-0.32-0.46-0.699-0.72-1.14   c-0.261-0.439-0.61-0.879-1.05-1.32c0,0.44-0.041,0.891-0.12,1.35c-0.081,0.46-0.34,0.91-0.78,1.35   c-0.44-0.439-0.66-1.029-0.66-1.77c0-0.739,0.219-1.329,0.66-1.77c-1.12-1.119-2.19-2.319-3.21-3.6c-1.02-1.28-2.05-2.55-3.09-3.81   c-1.041-1.26-2.121-2.48-3.24-3.66c-1.121-1.179-2.34-2.209-3.66-3.09c0-0.24-0.051-0.37-0.15-0.39   c-0.101-0.02-0.24-0.03-0.42-0.03c-0.18,0-0.371-0.02-0.57-0.06c-0.201-0.04-0.42-0.18-0.66-0.42c0.12,0,0.26-0.04,0.42-0.12   c0.12-0.08,0.229-0.17,0.33-0.27c0.1-0.1,0.15-0.27,0.15-0.51l-7.98,0.9l-0.9,0.9v22.08c0,1.32,0.129,2.65,0.39,3.99   c0.26,1.341,0.5,2.7,0.72,4.08c0.219,1.38,0.35,2.79,0.39,4.23c0.04,1.44-0.16,2.94-0.6,4.5l4.44-0.9c0.439,0,0.87,0.04,1.29,0.12   c0.42,0.081,0.83,0.15,1.23,0.21c0.399,0.06,0.759,0.081,1.08,0.06c0.319-0.02,0.6-0.15,0.84-0.39c0-4.44-0.081-8.67-0.24-12.69   c-0.16-4.02-0.681-8.03-1.56-12.03c0-0.24-0.081-0.47-0.24-0.69c-0.16-0.219-0.3-0.439-0.42-0.66c-0.12-0.219-0.15-0.439-0.09-0.66   c0.06-0.22,0.31-0.43,0.75-0.63c0.879,0.68,1.58,1.39,2.1,2.13c0.52,0.741,1,1.5,1.44,2.28c0.44,0.78,0.92,1.551,1.44,2.31   c0.519,0.76,1.219,1.46,2.1,2.1c1.32,1.32,2.67,2.601,4.05,3.84c1.38,1.24,2.709,2.49,3.99,3.75c1.28,1.26,2.439,2.571,3.48,3.93   c1.04,1.36,1.899,2.82,2.58,4.38l7.08-3.54c-0.44-5.76-0.81-11.649-1.11-17.67C80.701,473.244,80.771,467.353,81.211,461.593z    M55.651,479.293l0.84,8.82c0.879,1.521,1.91,3.04,3.09,4.56c1.179,1.521,2.43,3,3.75,4.44c1.32,1.44,2.679,2.82,4.08,4.14   c1.4,1.32,2.76,2.52,4.08,3.6c0.44-0.44,0.74-1.059,0.9-1.86c0.16-0.8,0.459-1.64,0.9-2.52c-0.24-1.32-0.75-2.51-1.53-3.57   c-0.78-1.06-1.67-2.049-2.67-2.97c-1-0.919-2.01-1.85-3.03-2.79c-1.02-0.939-1.871-1.95-2.55-3.03c-0.88-0.44-1.74-0.98-2.58-1.62   c-0.84-0.639-1.62-1.35-2.34-2.13c-0.72-0.78-1.341-1.6-1.86-2.46C56.211,481.043,55.851,480.173,55.651,479.293z M71.491,466.033   l-2.64,4.38c0.24,0.88,0.38,1.811,0.42,2.79c0.039,0.98,0.12,1.941,0.24,2.88c0.12,0.94,0.31,1.84,0.57,2.7   c0.259,0.861,0.729,1.611,1.41,2.25c0-1.32-0.04-2.6-0.12-3.84c-0.081-1.24-0.15-2.46-0.21-3.66s-0.081-2.42-0.06-3.66   C71.121,468.634,71.251,467.353,71.491,466.033z M72.391,506.653c0.879-0.441,1.8-0.851,2.76-1.23c0.96-0.381,1.85-0.82,2.67-1.32   c0.819-0.5,1.54-1.1,2.16-1.8c0.62-0.699,1.029-1.61,1.23-2.73c-0.88,0.44-1.881,0.801-3,1.08c-1.121,0.28-2.151,0.65-3.09,1.11   c-0.94,0.46-1.69,1.061-2.25,1.8C72.311,504.303,72.151,505.333,72.391,506.653z"/>
	<path d="M121.23,462.553c1.839,1.161,3.47,2.541,4.89,4.14c1.419,1.6,2.589,3.36,3.51,5.28c0.92,1.92,1.62,3.98,2.1,6.18   c0.48,2.2,0.72,4.46,0.72,6.78c-0.24,1.881-0.55,3.73-0.93,5.55c-0.38,1.82-0.92,3.55-1.62,5.19c-0.7,1.641-1.6,3.141-2.7,4.5   c-1.101,1.36-2.47,2.5-4.11,3.42c-1.401,1.879-3.011,3.429-4.83,4.65c-1.821,1.22-3.75,2.18-5.79,2.88   c-2.04,0.7-4.15,1.19-6.33,1.47c-2.181,0.279-4.311,0.42-6.39,0.42c-2.2-0.48-4.041-1.251-5.52-2.311   c-1.48-1.06-2.73-2.31-3.75-3.75s-1.83-3.02-2.43-4.74c-0.6-1.72-1.09-3.51-1.47-5.37c-0.38-1.86-0.69-3.729-0.93-5.61   c-0.24-1.88-0.52-3.68-0.84-5.4c1.16-2.319,2.41-4.759,3.75-7.32c1.34-2.56,2.859-4.97,4.56-7.23c1.7-2.259,3.63-4.26,5.79-6   c2.16-1.74,4.64-2.97,7.44-3.69c1.16,0,2.37-0.12,3.63-0.36c1.26-0.24,2.529-0.42,3.81-0.54c1.28-0.12,2.55-0.069,3.81,0.15   C118.861,461.063,120.07,461.633,121.23,462.553z M91.351,475.633c-0.92,1.88-1.821,3.59-2.7,5.13c-0.88,1.541-1.54,3.23-1.98,5.07   c0.32,1.401,0.56,2.85,0.72,4.35c0.159,1.5,0.32,2.991,0.48,4.47c0.159,1.48,0.39,2.95,0.69,4.41c0.3,1.461,0.74,2.85,1.32,4.17   c0.58,1.32,1.359,2.569,2.34,3.75c0.979,1.179,2.25,2.229,3.81,3.15c1.839,0.96,3.74,1.479,5.7,1.56c1.959,0.08,3.9-0.12,5.82-0.6   c1.92-0.48,3.799-1.14,5.64-1.98c1.839-0.84,3.58-1.72,5.22-2.64c-2.121,0.24-4.26,0.38-6.42,0.42c-2.16,0.04-4.26-0.15-6.3-0.57   s-3.96-1.121-5.76-2.1c-1.8-0.979-3.4-2.409-4.8-4.29c-1.4-1.64-2.52-3.48-3.36-5.52c-0.84-2.04-1.4-4.14-1.68-6.3   c-0.281-2.16-0.311-4.31-0.09-6.45C90.22,479.524,90.67,477.514,91.351,475.633z M101.67,465.313c-1.641,0.72-3.01,1.701-4.11,2.94   c-1.101,1.24-2.031,2.62-2.79,4.14c-0.76,1.521-1.4,3.12-1.92,4.8c-0.521,1.68-1.02,3.34-1.5,4.98c0,2.32,0.24,4.57,0.72,6.75   c0.48,2.181,1.179,4.2,2.1,6.06c0.92,1.86,2.08,3.53,3.48,5.01c1.4,1.48,3.04,2.68,4.92,3.6c1.64,0.48,3.41,0.87,5.31,1.17   c1.899,0.3,3.81,0.39,5.73,0.27c1.92-0.12,3.78-0.5,5.58-1.14c1.8-0.639,3.399-1.659,4.8-3.06c1.64-1.64,2.99-3.48,4.05-5.52   c1.06-2.04,1.82-4.17,2.28-6.39c0.459-2.22,0.639-4.46,0.54-6.72c-0.101-2.259-0.51-4.449-1.23-6.57c-0.48-1.64-1.16-3.2-2.04-4.68   c-0.88-1.479-1.911-2.799-3.09-3.96c-1.18-1.16-2.451-2.13-3.81-2.91c-1.36-0.78-2.74-1.29-4.14-1.53c0,0.48-0.041,0.801-0.12,0.96   c-0.081,0.16-0.34,0.46-0.78,0.9c-0.96-0.96-2.05-1.58-3.27-1.86c-1.22-0.279-2.47-0.33-3.75-0.15c-1.28,0.18-2.53,0.54-3.75,1.08   C103.66,464.023,102.59,464.633,101.67,465.313z M121.23,479.353c0.24,1.641,0.2,3.161-0.12,4.56   c-0.321,1.401-0.831,2.68-1.53,3.84c-0.7,1.16-1.551,2.21-2.55,3.15c-1,0.94-2.081,1.77-3.24,2.49   c-0.24-0.24-0.531-0.379-0.87-0.42c-0.34-0.04-0.71-0.06-1.11-0.06c-0.4,0-0.831-0.03-1.29-0.09c-0.46-0.06-0.93-0.21-1.41-0.45   c-0.681-0.24-1.371-0.57-2.07-0.99c-0.7-0.42-1.371-0.89-2.01-1.41c-0.641-0.52-1.251-1.05-1.83-1.59   c-0.581-0.54-1.09-1.05-1.53-1.53c-0.72-1.399-1.161-2.839-1.32-4.32c-0.16-1.479-0.09-2.919,0.21-4.32   c0.3-1.4,0.79-2.72,1.47-3.96c0.68-1.24,1.479-2.34,2.4-3.3c0.48-0.48,1.01-0.849,1.59-1.11c0.58-0.26,1.19-0.51,1.83-0.75   c0.639-0.24,1.299-0.5,1.98-0.78c0.68-0.279,1.359-0.66,2.04-1.14c1.16,0.72,2.259,1.54,3.3,2.46c1.04,0.92,1.97,1.911,2.79,2.97   c0.819,1.061,1.51,2.16,2.07,3.3C120.59,477.043,120.991,478.193,121.23,479.353z M113.791,470.053   c-0.48-0.48-0.91-0.699-1.29-0.66c-0.38,0.041-0.741,0.141-1.08,0.3c-0.34,0.16-0.69,0.32-1.05,0.48   c-0.36,0.16-0.78,0.12-1.26-0.12c-1.881,0.44-3.33,1.281-4.35,2.52c-1.02,1.24-1.75,2.56-2.19,3.96c2.76,0,5.559,0.94,8.4,2.82   c0.72,0.48,1.41,1.061,2.07,1.74c0.66,0.681,1.25,1.431,1.77,2.25c0.52,0.82,0.939,1.68,1.26,2.58c0.319,0.9,0.48,1.83,0.48,2.79   c0.48-0.24,0.89-0.58,1.23-1.02c0.339-0.44,0.63-0.93,0.87-1.47c0.24-0.54,0.42-1.08,0.54-1.62c0.12-0.54,0.18-1.05,0.18-1.53   c0-2.799-0.471-5.21-1.41-7.23C117.021,473.824,115.63,471.894,113.791,470.053z M106.351,479.353c-0.521-0.48-1.17-0.72-1.95-0.72   c-0.78,0-1.39,0.24-1.83,0.72c0,0.921,0.009,1.84,0.03,2.76c0.02,0.92,0.12,1.791,0.3,2.61c0.18,0.82,0.459,1.57,0.84,2.25   c0.379,0.681,0.909,1.26,1.59,1.74c0.72,0.48,1.43,0.93,2.13,1.35c0.7,0.42,1.4,0.741,2.1,0.96c0.699,0.221,1.4,0.311,2.1,0.27   c0.699-0.039,1.41-0.279,2.13-0.72c0-0.48,0.04-0.95,0.12-1.41c0.08-0.459,0.15-0.919,0.21-1.38c0.06-0.459,0.08-0.93,0.06-1.41   c-0.021-0.48-0.15-0.96-0.39-1.44c-0.96-1.399-1.98-2.559-3.06-3.48C109.65,480.534,108.19,479.833,106.351,479.353z"/>
	<path d="M175.47,468.673v1.86c-0.641,0.16-1.131,0.471-1.47,0.93c-0.34,0.46-0.621,0.98-0.84,1.56c-0.22,0.581-0.42,1.15-0.6,1.71   c-0.18,0.561-0.411,1.02-0.69,1.38c-0.28,0.36-0.651,0.57-1.11,0.63c-0.46,0.06-1.071-0.15-1.83-0.63   c-0.24,0.24-0.531,0.38-0.87,0.42c-0.34,0.041-0.681,0.06-1.02,0.06c-0.34,0-0.681,0.021-1.02,0.06c-0.34,0.04-0.63,0.18-0.87,0.42   c0.48,1.88,0.85,3.75,1.11,5.61c0.259,1.86,0.48,3.72,0.66,5.58c0.18,1.86,0.339,3.73,0.48,5.61c0.14,1.881,0.33,3.741,0.57,5.58   c0,1.161-0.201,2.121-0.6,2.88c-0.4,0.76-0.891,1.431-1.47,2.01c-0.58,0.579-1.19,1.129-1.83,1.65c-0.64,0.52-1.2,1.12-1.68,1.8   c-1.401,0.48-2.8,0.76-4.2,0.84c-1.4,0.08-2.8,0.12-4.2,0.12c-0.48,0.439-0.761,0.739-0.84,0.9c-0.081,0.159-0.12,0.48-0.12,0.96   c-0.44-0.24-0.7-0.57-0.78-0.99c-0.081-0.42-0.12-0.86-0.12-1.32c0-0.46-0.04-0.9-0.12-1.32c-0.081-0.42-0.34-0.75-0.78-0.99   c-0.24-2.319-0.34-4.7-0.3-7.14c0.039-2.439,0.06-4.85,0.06-7.23c0-2.379-0.101-4.719-0.3-7.02c-0.201-2.299-0.64-4.509-1.32-6.63   c-0.96-0.24-1.851-0.279-2.67-0.12c-0.82,0.161-1.611,0.3-2.37,0.42c-0.76,0.12-1.491,0.13-2.19,0.03c-0.7-0.1-1.41-0.51-2.13-1.23   c-0.48,0-0.99,0.04-1.53,0.12c-0.54,0.081-1.071,0.12-1.59,0.12c-0.521,0-1-0.08-1.44-0.24c-0.441-0.16-0.78-0.48-1.02-0.96v-7.44   c0.919-0.96,1.809-1.94,2.67-2.94c0.859-1,1.509-2.2,1.95-3.6c2.8-0.24,5.6-0.339,8.4-0.3c2.799,0.041,5.6,0.06,8.4,0.06   c2.799,0,5.6-0.09,8.4-0.27c2.799-0.18,5.6-0.63,8.4-1.35c0.72,0.24,1.18,0.681,1.38,1.32c0.2,0.64,0.33,1.371,0.39,2.19   c0.06,0.82,0.129,1.67,0.21,2.55C174.709,467.213,174.99,467.994,175.47,468.673z M138.15,465.913c-0.92,0.921-1.61,2.23-2.07,3.93   c-0.46,1.701-0.69,3.471-0.69,5.31c0.68-0.48,1.209-1.1,1.59-1.86c0.38-0.759,0.66-1.569,0.84-2.43c0.18-0.86,0.28-1.73,0.3-2.61   C138.14,467.374,138.15,466.594,138.15,465.913z M143.79,471.493c-0.72,0.24-1.47,0.44-2.25,0.6c-0.78,0.16-1.521,0.38-2.22,0.66   c-0.7,0.28-1.32,0.68-1.86,1.2c-0.54,0.521-0.93,1.24-1.17,2.16h3.72c0.72,0.72,1.479,1.12,2.28,1.2c0.8,0.081,1.599,0.03,2.4-0.15   c0.8-0.18,1.6-0.399,2.4-0.66c0.8-0.26,1.56-0.39,2.28-0.39l3.66-4.62c-0.68,0.24-1.38,0.33-2.1,0.27   c-0.72-0.06-1.451-0.15-2.19-0.27c-0.741-0.12-1.521-0.21-2.34-0.27C145.58,471.163,144.709,471.253,143.79,471.493z    M168.93,462.133c-2.121,0.72-4.331,1.13-6.63,1.23c-2.3,0.1-4.641,0.09-7.02-0.03c-2.38-0.12-4.78-0.249-7.2-0.39   c-2.421-0.14-4.791-0.09-7.11,0.15l-0.96,0.9c0,0.681-0.051,1.32-0.15,1.92c-0.1,0.6-0.18,1.2-0.24,1.8   c-0.06,0.6-0.07,1.2-0.03,1.8c0.04,0.6,0.18,1.26,0.42,1.98c1.16-0.96,2.37-1.509,3.63-1.65c1.26-0.14,2.569-0.15,3.93-0.03   c1.359,0.12,2.74,0.231,4.14,0.33c1.4,0.101,2.799-0.09,4.2-0.57c0,0.48,0.15,0.801,0.45,0.96c0.3,0.16,0.45,0.48,0.45,0.96   c-0.44,1.401-0.7,2.94-0.78,4.62c-0.081,1.68-0.12,3.22-0.12,4.62c0.919,3.76,1.459,7.5,1.62,11.22c0.16,3.72,0.24,7.46,0.24,11.22   c0.68-0.48,1.419-0.72,2.22-0.72c0.799,0,1.569,0.03,2.31,0.09c0.74,0.06,1.45,0.041,2.13-0.06c0.68-0.1,1.239-0.51,1.68-1.23   c0-4.64-0.19-9.129-0.57-13.47c-0.381-4.34-0.791-8.85-1.23-13.53h-0.96c0-0.48-0.051-0.95-0.15-1.41   c-0.101-0.459-0.18-0.92-0.24-1.38c-0.06-0.459-0.07-0.92-0.03-1.38c0.039-0.459,0.18-0.93,0.42-1.41c0.919,0,1.8,0.05,2.64,0.15   c0.84,0.1,1.669,0.201,2.49,0.3c0.819,0.101,1.64,0.201,2.46,0.3c0.819,0.1,1.689,0.15,2.61,0.15l-0.9-7.44H168.93z    M153.99,472.393c-0.24,0.48-0.57,0.9-0.99,1.26c-0.42,0.36-0.831,0.75-1.23,1.17c-0.4,0.42-0.75,0.87-1.05,1.35   c-0.3,0.48-0.45,1.08-0.45,1.8c0.48,0.681,0.8,1.371,0.96,2.07c0.159,0.701,0.27,1.401,0.33,2.1c0.06,0.7,0.11,1.401,0.15,2.1   c0.04,0.7,0.18,1.41,0.42,2.13c0.24,1.641,0.33,3.33,0.27,5.07c-0.06,1.74-0.12,3.48-0.18,5.22c-0.06,1.74-0.051,3.48,0.03,5.22   c0.08,1.74,0.339,3.41,0.78,5.01c0.48-0.92,0.96-1.66,1.44-2.22c0.48-0.561,0.96-1.06,1.44-1.5v-4.68   c0.68-2.08,0.919-4.179,0.72-6.3c-0.201-2.12-0.54-4.26-1.02-6.42c-0.48-2.16-0.93-4.35-1.35-6.57   C153.84,476.983,153.75,474.713,153.99,472.393z M154.95,507.793c0.24-0.24,0.529-0.37,0.87-0.39c0.339-0.021,0.68-0.03,1.02-0.03   c0.339,0,0.669-0.021,0.99-0.06c0.32-0.04,0.6-0.18,0.84-0.42c0.48-0.24,0.99-0.38,1.53-0.42c0.54-0.04,1.04-0.12,1.5-0.24   c0.459-0.12,0.849-0.33,1.17-0.63c0.32-0.3,0.48-0.81,0.48-1.53c-0.72,0.48-1.56,0.68-2.52,0.6c-0.96-0.081-1.871-0.12-2.73-0.12   c-0.861,0-1.601,0.189-2.22,0.57C155.259,505.503,154.95,506.393,154.95,507.793z M164.31,470.533c-0.321,1.08-0.321,1.971,0,2.67   c0.32,0.7,0.819,1.21,1.5,1.53c0.68,0.32,1.44,0.48,2.28,0.48c0.84,0,1.629-0.15,2.37-0.45c0.74-0.3,1.33-0.729,1.77-1.29   c0.44-0.56,0.58-1.22,0.42-1.98L164.31,470.533z"/>
	<path d="M210.87,461.653c-0.48,0.48-0.76,1.07-0.84,1.77c-0.081,0.7-0.09,1.45-0.03,2.25c0.06,0.8,0.12,1.6,0.18,2.4   c0.06,0.801-0.03,1.56-0.27,2.28c-0.24,0.24-0.441,0.54-0.6,0.9c-0.16,0.36-0.3,0.72-0.42,1.08c-0.12,0.36-0.25,0.72-0.39,1.08   c-0.141,0.36-0.33,0.66-0.57,0.9c-1.2,0.24-2.361,0.18-3.48-0.18c-1.121-0.36-2.22-0.72-3.3-1.08s-2.181-0.59-3.3-0.69   c-1.12-0.1-2.301,0.21-3.54,0.93v6.84c0.96-0.24,1.88-0.53,2.76-0.87c0.879-0.339,1.75-0.66,2.61-0.96   c0.859-0.3,1.719-0.56,2.58-0.78c0.859-0.219,1.77-0.33,2.73-0.33c0.48,0.48,0.81,1.03,0.99,1.65c0.18,0.621,0.3,1.26,0.36,1.92   c0.06,0.66,0.12,1.36,0.18,2.1c0.06,0.741,0.21,1.47,0.45,2.19c-0.48,0-0.911,0.16-1.29,0.48c-0.381,0.321-0.72,0.72-1.02,1.2   c-0.3,0.48-0.581,1-0.84,1.56c-0.26,0.561-0.51,1.08-0.75,1.56l-4.86,0.96v2.94c0.96,0.48,1.92,0.53,2.88,0.15   c0.96-0.38,1.899-0.79,2.82-1.23c0.919-0.44,1.8-0.669,2.64-0.69c0.84-0.02,1.62,0.57,2.34,1.77c-0.24,0.72-0.381,1.5-0.42,2.34   c-0.041,0.84-0.03,1.69,0.03,2.55c0.06,0.861,0.14,1.71,0.24,2.55c0.099,0.84,0.15,1.62,0.15,2.34c-0.48,0.16-0.921,0.5-1.32,1.02   c-0.4,0.52-0.8,1.1-1.2,1.74c-0.4,0.64-0.81,1.29-1.23,1.95s-0.91,1.179-1.47,1.56c-0.561,0.38-1.2,0.56-1.92,0.54   c-0.72-0.021-1.56-0.351-2.52-0.99c-1.72,0.24-3.49,0.53-5.31,0.87c-1.82,0.339-3.67,0.66-5.55,0.96   c-1.881,0.3-3.791,0.56-5.73,0.78c-1.941,0.219-3.891,0.33-5.85,0.33c0.24-0.24,0.38-0.54,0.42-0.9c0.04-0.36,0.06-0.76,0.06-1.2   c0-0.441,0.02-0.9,0.06-1.38c0.04-0.48,0.18-0.96,0.42-1.44c0-5.839-0.04-11.67-0.12-17.49c-0.081-5.82-0.36-11.67-0.84-17.55   v-0.96c0.639-0.159,1.19-0.47,1.65-0.93c0.459-0.459,0.879-0.97,1.26-1.53c0.379-0.56,0.75-1.129,1.11-1.71   c0.36-0.579,0.759-1.089,1.2-1.53c0.439-0.44,0.939-0.77,1.5-0.99c0.56-0.219,1.26-0.25,2.1-0.09c2.16-0.24,4.28-0.53,6.36-0.87   c2.079-0.339,4.149-0.66,6.21-0.96c2.06-0.3,4.14-0.56,6.24-0.78C206.52,461.764,208.67,461.653,210.87,461.653z M181.65,468.493   l-2.88,2.88c0,2.92,0.09,5.951,0.27,9.09c0.18,3.141,0.33,6.32,0.45,9.54c0.12,3.22,0.15,6.46,0.09,9.72   c-0.06,3.261-0.33,6.47-0.81,9.63l3.9-3.9v-5.82c-0.48-2.439-0.76-4.98-0.84-7.62c-0.081-2.64-0.09-5.3-0.03-7.98   c0.06-2.679,0.109-5.33,0.15-7.95C181.989,473.464,181.89,470.934,181.65,468.493z M198.21,504.433c-1.72,0-3.471,0.04-5.25,0.12   c-1.78,0.08-3.52,0.33-5.22,0.75c-1.701,0.42-3.321,1.089-4.86,2.01c-1.54,0.92-2.91,2.24-4.11,3.96   c2.919-0.48,5.79-0.92,8.61-1.32c2.82-0.4,5.45-0.6,7.89-0.6c0.72,0,1.4-0.141,2.04-0.42c0.639-0.28,1.23-0.54,1.77-0.78   c0.54-0.24,1.05-0.381,1.53-0.42c0.48-0.041,0.96,0.18,1.44,0.66c0.48,0,0.859-0.11,1.14-0.33c0.279-0.22,0.51-0.52,0.69-0.9   c0.18-0.38,0.35-0.81,0.51-1.29c0.159-0.48,0.36-0.96,0.6-1.44H198.21z M183.63,466.513c-0.24,2.2-0.38,4.4-0.42,6.6   c-0.04,2.2-0.03,4.42,0.03,6.66c0.06,2.241,0.14,4.521,0.24,6.84c0.1,2.32,0.15,4.701,0.15,7.14c0,1.48,0.16,2.99,0.48,4.53   c0.32,1.541,0.48,3.291,0.48,5.25c0.52-0.48,1.01-0.879,1.47-1.2c0.459-0.319,0.93-0.24,1.41,0.24s0.56,0.76,0.24,0.84   c-0.32,0.081-0.72,0.12-1.2,0.12h4.86c2.479,0,5.04-0.04,7.68-0.12c2.64-0.08,4.959-0.36,6.96-0.84c0.48-0.48,0.75-1.07,0.81-1.77   c0.06-0.699,0.06-1.419,0-2.16c-0.06-0.74-0.11-1.449-0.15-2.13c-0.04-0.68,0.06-1.26,0.3-1.74l-1.98-1.02   c-0.48,0.24-1.061,0.49-1.74,0.75c-0.681,0.26-1.38,0.51-2.1,0.75c-0.72,0.24-1.431,0.48-2.13,0.72c-0.7,0.24-1.29,0.48-1.77,0.72   c-0.72-0.48-1.14-1.01-1.26-1.59c-0.12-0.579-0.15-1.179-0.09-1.8c0.06-0.62,0.09-1.23,0.09-1.83s-0.24-1.14-0.72-1.62   c0.24-0.24,0.339-0.579,0.3-1.02c-0.04-0.439-0.09-0.9-0.15-1.38s-0.05-0.939,0.03-1.38c0.08-0.44,0.36-0.78,0.84-1.02   c0.96,0,2.13-0.04,3.51-0.12c1.38-0.08,2.79-0.379,4.23-0.9c0.48-0.24,0.799-0.58,0.96-1.02c0.159-0.439,0.21-0.909,0.15-1.41   c-0.06-0.5-0.201-0.969-0.42-1.41c-0.221-0.44-0.45-0.78-0.69-1.02c-0.96,0-1.871,0.11-2.73,0.33c-0.861,0.22-1.721,0.48-2.58,0.78   c-0.861,0.3-1.731,0.621-2.61,0.96c-0.88,0.34-1.8,0.63-2.76,0.87c-0.48-1-0.76-2.19-0.84-3.57c-0.081-1.38-0.12-2.79-0.12-4.23   c-0.201,0-0.381-0.039-0.54-0.12c-0.321-0.16-0.48-0.459-0.48-0.9c0.48-0.24,0.81-0.529,0.99-0.87c0.18-0.339,0.3-0.69,0.36-1.05   c0.06-0.36,0.12-0.709,0.18-1.05c0.06-0.339,0.21-0.63,0.45-0.87c1.2-0.24,2.46-0.379,3.78-0.42c1.32-0.04,2.649-0.06,3.99-0.06   c1.34,0,2.67-0.02,3.99-0.06c1.32-0.039,2.58-0.18,3.78-0.42c0-0.48-0.051-0.969-0.15-1.47c-0.101-0.5-0.18-0.99-0.24-1.47   s-0.07-0.969-0.03-1.47c0.039-0.5,0.18-0.99,0.42-1.47c-4.36,0.48-8.691,1.011-12.99,1.59   C191.6,464.784,187.509,465.553,183.63,466.513z M195.27,471.373c0.72,0,1.449-0.039,2.19-0.12c0.74-0.08,1.479-0.12,2.22-0.12   c0.74,0,1.47,0.081,2.19,0.24c0.72,0.161,1.44,0.48,2.16,0.96c0.48,0,0.96,0.03,1.44,0.09s0.9,0.06,1.26,0s0.65-0.24,0.87-0.54   c0.219-0.3,0.33-0.81,0.33-1.53c-0.96,0.24-1.98,0.34-3.06,0.3c-1.08-0.04-2.16-0.09-3.24-0.15c-1.08-0.06-2.16-0.05-3.24,0.03   C197.31,470.614,196.27,470.893,195.27,471.373z M198.21,486.973v1.92c0.24-0.24,0.64-0.339,1.2-0.3c0.56,0.04,1.14,0.03,1.74-0.03   c0.6-0.06,1.17-0.259,1.71-0.6c0.54-0.339,0.93-0.99,1.17-1.95c-1,0-1.971,0.041-2.91,0.12   C200.18,486.214,199.209,486.493,198.21,486.973z"/>
	<path d="M245.43,462.193c0-0.24,0.009-0.38,0.03-0.42c0.02-0.039,0.06-0.03,0.12,0.03s0.16,0.141,0.3,0.24   c0.14,0.101,0.33,0.15,0.57,0.15c-0.24,0.76-0.54,1.46-0.9,2.1c-0.36,0.641-0.7,1.281-1.02,1.92c-0.321,0.64-0.591,1.28-0.81,1.92   c-0.22,0.64-0.33,1.34-0.33,2.1c-0.48,0-0.92,0.11-1.32,0.33c-0.4,0.221-0.75,0.48-1.05,0.78c-0.3,0.3-0.58,0.63-0.84,0.99   c-0.261,0.36-0.51,0.66-0.75,0.9c0-0.52-0.11-0.97-0.33-1.35c-0.22-0.38-0.49-0.69-0.81-0.93c-0.32-0.24-0.65-0.42-0.99-0.54   c-0.34-0.12-0.63-0.18-0.87-0.18c-1.041-0.52-2.05-0.609-3.03-0.27c-0.981,0.34-1.99,0.75-3.03,1.23   c0.24,1.28,0.819,2.32,1.74,3.12c0.919,0.801,1.98,1.521,3.18,2.16c1.2,0.64,2.439,1.24,3.72,1.8c1.28,0.561,2.419,1.221,3.42,1.98   c1,0.48,2.03,1.14,3.09,1.98c1.06,0.84,2.03,1.791,2.91,2.85c0.879,1.061,1.6,2.211,2.16,3.45c0.56,1.24,0.84,2.48,0.84,3.72   c-0.48,1.24-1.041,2.47-1.68,3.69c-0.64,1.22-1.371,2.36-2.19,3.42c-0.82,1.06-1.74,2.02-2.76,2.88   c-1.02,0.861-2.151,1.53-3.39,2.01c-1,0.999-2.17,1.91-3.51,2.73c-1.341,0.819-2.76,1.449-4.26,1.89c-1.5,0.44-3.05,0.64-4.65,0.6   c-1.6-0.04-3.141-0.44-4.62-1.2c-1.521-1-3.06-1.791-4.62-2.37c-1.56-0.581-3.36-1.131-5.4-1.65c0-0.52,0.17-1.23,0.51-2.13   c0.339-0.9,0.51-1.85,0.51-2.85h-1.02c0.52-0.759,1.08-1.41,1.68-1.95s1.22-1.06,1.86-1.56c0.64-0.5,1.26-1.02,1.86-1.56   c0.6-0.54,1.14-1.189,1.62-1.95c0.52,0.52,1.029,1.23,1.53,2.13c0.5,0.9,0.99,1.851,1.47,2.85c0.759,0.24,1.509,0.53,2.25,0.87   c0.74,0.34,1.49,0.6,2.25,0.78c0.759,0.18,1.52,0.24,2.28,0.18c0.759-0.06,1.52-0.33,2.28-0.81c0.759,0,1.29-0.16,1.59-0.48   c0.3-0.319,0.48-0.699,0.54-1.14c0.06-0.44,0.05-0.89-0.03-1.35c-0.081-0.459-0.12-0.81-0.12-1.05c0-1-0.23-1.89-0.69-2.67   c-0.46-0.78-1.03-1.479-1.71-2.1c-0.681-0.62-1.431-1.19-2.25-1.71c-0.82-0.52-1.611-1.02-2.37-1.5c-0.84-0.32-1.81-0.62-2.91-0.9   c-1.101-0.279-2.241-0.57-3.42-0.87c-1.18-0.3-2.32-0.68-3.42-1.14c-1.101-0.459-2.07-1.04-2.91-1.74   c-0.84-0.699-1.48-1.56-1.92-2.58c-0.44-1.02-0.58-2.289-0.42-3.81c0-2,0.45-3.86,1.35-5.58c0.9-1.72,2.03-3.27,3.39-4.65   c1.359-1.38,2.859-2.57,4.5-3.57c1.64-1,3.219-1.74,4.74-2.22c1.52-0.24,3.08-0.459,4.68-0.66c1.599-0.2,3.18-0.229,4.74-0.09   c1.56,0.141,3.069,0.49,4.53,1.05C242.779,460.054,244.149,460.954,245.43,462.193z M216.39,469.213   c-0.24,0.76-0.531,1.51-0.87,2.25c-0.34,0.74-0.64,1.49-0.9,2.25c-0.261,0.76-0.43,1.51-0.51,2.25c-0.081,0.74,0,1.49,0.24,2.25   c0.84,1.161,1.8,2.1,2.88,2.82c1.08,0.72,2.229,1.33,3.45,1.83c1.22,0.5,2.46,0.92,3.72,1.26c1.26,0.34,2.49,0.73,3.69,1.17   c1.2,0.441,2.34,0.96,3.42,1.56c1.08,0.6,2.04,1.401,2.88,2.4c0.759,0.48,1.299,1.03,1.62,1.65c0.32,0.621,0.54,1.27,0.66,1.95   c0.12,0.681,0.21,1.391,0.27,2.13c0.06,0.74,0.21,1.49,0.45,2.25c1.04-1,1.8-2.04,2.28-3.12s0.72-2.379,0.72-3.9   c-1.24-1.479-2.601-2.7-4.08-3.66c-1.48-0.96-3.03-1.779-4.65-2.46c-1.62-0.68-3.3-1.299-5.04-1.86c-1.74-0.56-3.49-1.22-5.25-1.98   c-0.76-0.52-1.54-1.149-2.34-1.89c-0.801-0.74-1.48-1.58-2.04-2.52c-0.561-0.939-0.93-1.97-1.11-3.09   C215.7,471.634,215.87,470.454,216.39,469.213z M216.39,500.233c0,0.52-0.17,1.03-0.51,1.53c-0.34,0.5-0.51,0.99-0.51,1.47   c1.76,0.76,3.57,1.53,5.43,2.31c1.86,0.78,3.72,1.39,5.58,1.83c1.86,0.44,3.72,0.62,5.58,0.54c1.86-0.081,3.669-0.621,5.43-1.62   c-2,0.24-3.94,0.2-5.82-0.12c-1.881-0.321-3.69-0.791-5.43-1.41c-1.74-0.621-3.43-1.34-5.07-2.16   C219.429,501.784,217.869,500.994,216.39,500.233z M239.43,460.213c-3.52-0.52-6.99-0.44-10.41,0.24   c-3.42,0.681-6.63,2.26-9.63,4.74c-1.041,1.521-1.6,3.19-1.68,5.01c-0.081,1.821,0.14,3.49,0.66,5.01   c0.759,1.28,1.58,2.271,2.46,2.97c0.879,0.7,1.82,1.271,2.82,1.71c0.999,0.441,2.06,0.82,3.18,1.14c1.12,0.321,2.3,0.72,3.54,1.2   c1,0.48,2.19,1,3.57,1.56c1.38,0.561,2.7,1.21,3.96,1.95c1.26,0.741,2.33,1.641,3.21,2.7c0.879,1.06,1.32,2.331,1.32,3.81   c-0.24,1-0.66,1.89-1.26,2.67c-0.6,0.78-1.271,1.48-2.01,2.1c-0.741,0.621-1.53,1.191-2.37,1.71c-0.84,0.52-1.641,1.02-2.4,1.5   c-0.24-0.24-0.54-0.37-0.9-0.39c-0.36-0.02-0.76,0-1.2,0.06c-0.44,0.06-0.91,0.13-1.41,0.21c-0.501,0.081-0.99,0.12-1.47,0.12   c-0.76-0.24-1.56-0.5-2.4-0.78c-0.84-0.279-1.63-0.639-2.37-1.08c-0.741-0.439-1.41-0.99-2.01-1.65s-1.02-1.49-1.26-2.49   c-0.24,0.52-0.54,0.92-0.9,1.2c-0.36,0.28-0.73,0.51-1.11,0.69c-0.381,0.18-0.75,0.351-1.11,0.51c-0.36,0.16-0.66,0.36-0.9,0.6   c-0.24,0.52-0.26,0.92-0.06,1.2c0.2,0.28,0.49,0.51,0.87,0.69c0.38,0.18,0.79,0.351,1.23,0.51c0.44,0.16,0.78,0.36,1.02,0.6   c1.479,1,3.14,1.9,4.98,2.7c1.839,0.801,3.729,1.32,5.67,1.56c1.94,0.24,3.879,0.14,5.82-0.3c1.939-0.44,3.789-1.419,5.55-2.94   c0,0.28,0.05,0.43,0.15,0.45c0.1,0.021,0.21-0.009,0.33-0.09c0.16-0.08,0.32-0.2,0.48-0.36c0.759-0.76,1.55-1.58,2.37-2.46   c0.819-0.879,1.54-1.819,2.16-2.82c0.62-1,1.089-2.06,1.41-3.18c0.32-1.119,0.36-2.299,0.12-3.54c-0.521-1.479-1.3-2.8-2.34-3.96   c-1.041-1.16-2.19-2.18-3.45-3.06c-1.26-0.879-2.53-1.64-3.81-2.28c-1.28-0.639-2.42-1.22-3.42-1.74   c-0.76-0.48-1.51-0.93-2.25-1.35c-0.741-0.42-1.42-0.85-2.04-1.29c-0.621-0.44-1.17-0.92-1.65-1.44c-0.48-0.52-0.84-1.16-1.08-1.92   c-1,0-1.57-0.11-1.71-0.33c-0.141-0.22-0.12-0.52,0.06-0.9c0.18-0.38,0.39-0.81,0.63-1.29c0.24-0.48,0.24-0.98,0-1.5   c0-0.48,0.16-0.86,0.48-1.14c0.32-0.279,0.7-0.52,1.14-0.72c0.439-0.2,0.89-0.379,1.35-0.54c0.459-0.159,0.81-0.36,1.05-0.6   c2.04-0.52,3.84-0.57,5.4-0.15c1.56,0.42,3.1,1.15,4.62,2.19c0.48-0.52,0.8-1.24,0.96-2.16c0.16-0.92,0.5-1.88,1.02-2.88   c-0.48-0.24-0.92-0.44-1.32-0.6c-0.4-0.16-0.791-0.3-1.17-0.42c-0.381-0.12-0.771-0.25-1.17-0.39   C240.35,460.644,239.91,460.453,239.43,460.213z M233.43,466.213c-0.24,0.24-0.58,0.44-1.02,0.6c-0.44,0.161-0.85,0.34-1.23,0.54   c-0.38,0.201-0.67,0.441-0.87,0.72c-0.201,0.28-0.18,0.66,0.06,1.14h2.04c1.479-0.52,2.93-0.69,4.35-0.51   c1.419,0.18,2.63,1.011,3.63,2.49c0-0.24,0.05-0.47,0.15-0.69c0.1-0.22,0.21-0.43,0.33-0.63c0.16-0.2,0.339-0.42,0.54-0.66   c-0.48-0.76-1.03-1.34-1.65-1.74c-0.621-0.399-1.271-0.69-1.95-0.87c-0.681-0.18-1.39-0.29-2.13-0.33   C234.939,466.234,234.189,466.213,233.43,466.213z"/>
	<path d="M305.429,462.313c0,0.441-0.09,0.891-0.27,1.35c-0.18,0.46-0.36,0.951-0.54,1.47c-0.18,0.52-0.3,1.07-0.36,1.65   c-0.06,0.58,0.03,1.23,0.27,1.95c-0.72,0-1.271,0.11-1.65,0.33c-0.38,0.221-0.69,0.501-0.93,0.84c-0.24,0.34-0.431,0.73-0.57,1.17   c-0.141,0.44-0.33,0.88-0.57,1.32c-0.44,0.24-1.02,0.441-1.74,0.6c-0.72,0.16-1.36,0.39-1.92,0.69c-0.561,0.3-0.97,0.711-1.23,1.23   c-0.26,0.521-0.15,1.24,0.33,2.16c1.4,0,2.78-0.04,4.14-0.12c1.359-0.08,2.739-0.36,4.14-0.84l0.9,0.96   c0.48,0.681,0.75,1.36,0.81,2.04c0.06,0.681,0.06,1.36,0,2.04c-0.06,0.681-0.111,1.371-0.15,2.07c-0.04,0.7,0.06,1.39,0.3,2.07   c-0.921,0-1.611,0.371-2.07,1.11c-0.46,0.741-0.86,1.491-1.2,2.25c-0.34,0.76-0.73,1.34-1.17,1.74   c-0.441,0.4-1.101,0.261-1.98-0.42c-0.921,0-1.661,0.041-2.22,0.12c-0.561,0.081-1.06,0.34-1.5,0.78c0,0.921,0.1,1.791,0.3,2.61   c0.199,0.82,0.41,1.67,0.63,2.55c0.219,0.88,0.429,1.791,0.63,2.73c0.2,0.94,0.3,1.99,0.3,3.15c-0.92,0.921-1.81,1.84-2.67,2.76   c-0.86,0.919-1.53,1.839-2.01,2.76c0,0.24,0.05,0.38,0.15,0.42c0.099,0.04,0.21,0.06,0.33,0.06s0.229,0.009,0.33,0.03   c0.099,0.02,0.15,0.15,0.15,0.39c-0.48,0.48-1,0.8-1.56,0.96c-0.561,0.16-1.161,0.27-1.8,0.33c-0.641,0.06-1.3,0.11-1.98,0.15   c-0.681,0.04-1.38,0.18-2.1,0.42c-0.441,0.24-0.88,0.379-1.32,0.42c-0.44,0.039-0.891,0.09-1.35,0.15   c-0.46,0.06-0.921,0.17-1.38,0.33c-0.46,0.159-0.93,0.48-1.41,0.96c-0.48-0.48-0.791-0.951-0.93-1.41   c-0.141-0.46-0.18-0.92-0.12-1.38c0.06-0.46,0.189-0.92,0.39-1.38c0.2-0.46,0.42-0.93,0.66-1.41l-1.86-11.94   c0-1.839,0.18-3.639,0.54-5.4c0.36-1.76,0.72-3.5,1.08-5.22c0.36-1.719,0.609-3.45,0.75-5.19c0.14-1.74-0.03-3.53-0.51-5.37   c0.48-0.68,0.859-1.459,1.14-2.34c0.28-0.879,0.59-1.76,0.93-2.64c0.339-0.879,0.759-1.7,1.26-2.46c0.5-0.759,1.209-1.359,2.13-1.8   c1.399-0.24,2.799-0.51,4.2-0.81c1.4-0.3,2.82-0.6,4.26-0.9c1.44-0.3,2.919-0.549,4.44-0.75c1.52-0.2,3.08-0.3,4.68-0.3   L305.429,462.313z M284.249,468.733c-0.681,1.161-1.03,2.36-1.05,3.6c-0.021,1.241,0.03,2.46,0.15,3.66s0.169,2.361,0.15,3.48   c-0.021,1.12-0.39,2.14-1.11,3.06c-0.24,2.28-0.371,4.521-0.39,6.72c-0.021,2.2,0,4.371,0.06,6.51c0.06,2.14,0.129,4.25,0.21,6.33   c0.08,2.079,0.12,4.16,0.12,6.24c0.24-0.48,0.52-1,0.84-1.56c0.32-0.561,0.63-1.15,0.93-1.77c0.3-0.621,0.549-1.27,0.75-1.95   c0.2-0.68,0.3-1.359,0.3-2.04c-0.24-2.52-0.34-5.109-0.3-7.77c0.039-2.66,0.09-5.34,0.15-8.04c0.06-2.7,0.06-5.43,0-8.19   S284.729,471.493,284.249,468.733z M294.389,502.873c-0.681,0.681-1.551,1.18-2.61,1.5c-1.061,0.32-2.11,0.66-3.15,1.02   c-1.041,0.36-1.97,0.819-2.79,1.38c-0.82,0.56-1.35,1.4-1.59,2.52c0.48,0,0.95-0.09,1.41-0.27c0.459-0.18,0.95-0.36,1.47-0.54   c0.52-0.18,1.07-0.311,1.65-0.39c0.579-0.081,1.209,0,1.89,0.24c0.92-0.92,1.65-1.83,2.19-2.73   C293.398,504.703,293.909,503.794,294.389,502.873z M303.568,462.313c-1.36,0-2.82,0.07-4.38,0.21   c-1.56,0.141-3.12,0.381-4.68,0.72c-1.56,0.34-3.07,0.801-4.53,1.38c-1.46,0.581-2.75,1.331-3.87,2.25c0,1.881,0.14,3.93,0.42,6.15   c0.279,2.22,0.42,4.47,0.42,6.75c-0.201,1.401-0.321,2.831-0.36,4.29c-0.04,1.461-0.03,2.94,0.03,4.44s0.129,2.99,0.21,4.47   c0.08,1.48,0.12,2.92,0.12,4.32v6.48c0.919,0,1.749-0.14,2.49-0.42c0.74-0.279,1.419-0.6,2.04-0.96c0.62-0.36,1.239-0.68,1.86-0.96   c0.62-0.279,1.27-0.42,1.95-0.42c0.24-0.92,0.37-1.89,0.39-2.91c0.02-1.02-0.06-2.019-0.24-3c-0.18-0.979-0.44-1.91-0.78-2.79   c-0.34-0.879-0.75-1.659-1.23-2.34c0.24-0.48,0.33-0.939,0.27-1.38c-0.06-0.44-0.15-0.87-0.27-1.29s-0.21-0.8-0.27-1.14   c-0.06-0.339,0.03-0.63,0.27-0.87c0.919,0,1.839-0.09,2.76-0.27c0.92-0.18,1.85-0.35,2.79-0.51c0.939-0.159,1.87-0.279,2.79-0.36   c0.92-0.08,1.839,0,2.76,0.24c0-0.24-0.051-0.519-0.15-0.84c-0.1-0.32-0.18-0.65-0.24-0.99c-0.06-0.339-0.07-0.68-0.03-1.02   c0.04-0.339,0.18-0.63,0.42-0.87c0-0.44-0.041-0.86-0.12-1.26c-0.081-0.399-0.36-0.6-0.84-0.6c-0.92-0.439-1.791-0.649-2.61-0.63   c-0.82,0.021-1.63,0.09-2.43,0.21c-0.801,0.12-1.62,0.19-2.46,0.21c-0.84,0.021-1.72-0.189-2.64-0.63   c0.48-0.439,0.759-0.9,0.84-1.38c0.08-0.48,0.12-0.939,0.12-1.38c-0.48-0.24-0.75-0.53-0.81-0.87c-0.06-0.339-0.06-0.71,0-1.11   c0.06-0.399,0.11-0.83,0.15-1.29c0.04-0.459-0.06-0.91-0.3-1.35c1.399-0.92,2.829-1.62,4.29-2.1c1.459-0.48,3.109-0.72,4.95-0.72   L303.568,462.313z M295.289,473.353c0.72-0.24,1.41-0.439,2.07-0.6c0.66-0.16,1.24-0.36,1.74-0.6c0.5-0.24,0.909-0.549,1.23-0.93   c0.32-0.38,0.48-0.909,0.48-1.59c-0.44,0-0.98,0.021-1.62,0.06c-0.64,0.04-1.25,0.18-1.83,0.42c-0.58,0.24-1.07,0.61-1.47,1.11   C295.488,471.724,295.289,472.434,295.289,473.353z M295.289,487.153c0,0.48,0.2,0.91,0.6,1.29c0.399,0.38,0.819,0.57,1.26,0.57   c0.48-0.48,1.029-0.709,1.65-0.69c0.62,0.021,1.219,0.03,1.8,0.03c0.579,0,1.07-0.12,1.47-0.36c0.399-0.24,0.6-0.819,0.6-1.74   c-0.681,0-1.311,0.05-1.89,0.15c-0.581,0.1-1.161,0.201-1.74,0.3c-0.58,0.101-1.17,0.201-1.77,0.3   C296.668,487.104,296.009,487.153,295.289,487.153z"/>
	<path d="M331.948,463.333c0.64,0.88,1.27,1.761,1.89,2.64c0.62,0.88,1.129,1.78,1.53,2.7c0.399,0.92,0.63,1.88,0.69,2.88   c0.06,1-0.13,2.04-0.57,3.12l-5.22,6.96c0.84,1.521,1.79,3,2.85,4.44c1.06,1.44,2.13,2.871,3.21,4.29   c1.08,1.42,2.15,2.85,3.21,4.29c1.06,1.44,2.03,2.94,2.91,4.5l0.9,2.58l-3.54,6.12c-0.64-0.44-1.28-0.73-1.92-0.87   c-0.64-0.141-1.26-0.21-1.86-0.21s-1.17,0.03-1.71,0.09s-1.03,0.09-1.47,0.09c-1.521-0.88-2.77-1.98-3.75-3.3   c-0.98-1.32-1.88-2.72-2.7-4.2c-0.82-1.479-1.661-2.94-2.52-4.38c-0.861-1.44-1.95-2.7-3.27-3.78v11.34   c-0.681,0.201-1.21,0.621-1.59,1.26c-0.381,0.64-0.761,1.26-1.14,1.86c-0.381,0.6-0.82,1.059-1.32,1.38   c-0.5,0.319-1.19,0.26-2.07-0.18c-0.44,0.44-1.06,0.84-1.86,1.2c-0.801,0.36-1.62,0.54-2.46,0.54c0,0.159-0.041,0.319-0.12,0.48   c-0.16,0.279-0.42,0.42-0.78,0.42c-0.441-4.84-0.801-9.68-1.08-14.52c-0.28-4.839-0.201-9.9,0.24-15.18v-7.86   c0.879-1.76,1.71-3.33,2.49-4.71c0.78-1.38,1.389-2.709,1.83-3.99c1.52-0.879,3.129-1.5,4.83-1.86c1.7-0.36,3.399-0.51,5.1-0.45   c1.7,0.06,3.339,0.3,4.92,0.72C329.178,462.163,330.628,462.694,331.948,463.333z M312.749,465.913l-2.58,5.28   c0,2.16-0.09,4.33-0.27,6.51c-0.18,2.181-0.351,4.371-0.51,6.57c-0.16,2.201-0.27,4.391-0.33,6.57   c-0.06,2.181,0.01,4.371,0.21,6.57c0.439,1.281,0.699,2.721,0.78,4.32c0.08,1.6,0.12,3.06,0.12,4.38   c0.439-0.88,0.83-1.941,1.17-3.18c0.339-1.239,0.51-2.5,0.51-3.78c-0.44-2.64-0.63-5.319-0.57-8.04   c0.06-2.72,0.189-5.469,0.39-8.25c0.2-2.78,0.429-5.589,0.69-8.43C312.618,471.593,312.749,468.754,312.749,465.913z    M311.008,506.953c0.639-0.201,1.37-0.33,2.19-0.39c0.819-0.06,1.58-0.18,2.28-0.36c0.699-0.18,1.29-0.46,1.77-0.84   c0.48-0.381,0.72-1.011,0.72-1.89c-0.64,0-1.32,0.06-2.04,0.18c-0.72,0.12-1.41,0.32-2.07,0.6c-0.66,0.279-1.25,0.639-1.77,1.08   C311.568,505.773,311.208,506.313,311.008,506.953z M330.269,463.333c-1.32-0.24-2.681-0.489-4.08-0.75   c-1.401-0.259-2.781-0.45-4.14-0.57c-1.36-0.12-2.69-0.09-3.99,0.09c-1.3,0.18-2.49,0.591-3.57,1.23   c-0.44,1.281-0.69,2.73-0.75,4.35s-0.09,3.07-0.09,4.35c-0.441,2.64-0.741,5.271-0.9,7.89c-0.161,2.62-0.24,5.23-0.24,7.83   c0,2.601,0.04,5.21,0.12,7.83c0.08,2.621,0.12,5.25,0.12,7.89c0.639-0.439,1.25-0.729,1.83-0.87c0.58-0.14,1.14-0.24,1.68-0.3   s1.089-0.11,1.65-0.15c0.56-0.04,1.16-0.18,1.8-0.42c0-1.52,0-2.95,0-4.29c0-1.34-0.03-2.67-0.09-3.99s-0.15-2.649-0.27-3.99   c-0.12-1.34-0.28-2.77-0.48-4.29h0.84c1.759,0.88,3.279,2.04,4.56,3.48c1.279,1.44,2.469,2.98,3.57,4.62   c1.1,1.641,2.169,3.281,3.21,4.92c1.04,1.641,2.22,3.12,3.54,4.44l0.9-0.9c0.44,0.24,0.92,0.37,1.44,0.39   c0.52,0.021,1.02-0.03,1.5-0.15s0.92-0.279,1.32-0.48c0.399-0.2,0.72-0.42,0.96-0.66c-0.441-1.719-1.121-3.41-2.04-5.07   c-0.921-1.659-1.95-3.279-3.09-4.86c-1.14-1.58-2.34-3.14-3.6-4.68c-1.26-1.54-2.43-3.069-3.51-4.59l0.9-0.9l4.32-6.06   c0.68-0.879,1.05-1.76,1.11-2.64c0.06-0.879-0.051-1.75-0.33-2.61c-0.28-0.86-0.66-1.73-1.14-2.61c-0.48-0.879-0.94-1.74-1.38-2.58   L330.269,463.333z M324.988,471.193c0.64,0.64,0.96,1.29,0.96,1.95c0,0.66-0.17,1.311-0.51,1.95c-0.34,0.64-0.73,1.29-1.17,1.95   c-0.441,0.66-0.78,1.311-1.02,1.95c-0.441-0.399-0.84-0.54-1.2-0.42s-0.73,0.31-1.11,0.57c-0.381,0.261-0.81,0.501-1.29,0.72   c-0.48,0.22-1.041,0.23-1.68,0.03c0.24-0.879,0.33-1.76,0.27-2.64c-0.06-0.879-0.141-1.75-0.24-2.61   c-0.101-0.859-0.18-1.729-0.24-2.61c-0.06-0.879,0.009-1.74,0.21-2.58c0.64-0.439,1.33-0.72,2.07-0.84c0.74-0.12,1.44-0.1,2.1,0.06   c0.66,0.16,1.25,0.46,1.77,0.9C324.428,470.014,324.788,470.554,324.988,471.193z M319.708,469.453c-0.441,0-0.73,0.101-0.87,0.3   c-0.141,0.2-0.21,0.43-0.21,0.69c0,0.26,0.039,0.54,0.12,0.84c0.08,0.3,0.12,0.55,0.12,0.75h1.74c0.919,0.44,1.59,1.02,2.01,1.74   c0.42,0.72,0.63,1.301,0.63,1.74l0.9-0.84c0.2-0.24,0.309-0.56,0.33-0.96c0.02-0.399-0.021-0.81-0.12-1.23   c-0.101-0.42-0.25-0.83-0.45-1.23c-0.201-0.399-0.42-0.72-0.66-0.96c-0.441-0.439-1.031-0.69-1.77-0.75   C320.738,469.483,320.148,469.453,319.708,469.453z M318.868,472.873v6.12c0.879-0.399,1.58-0.819,2.1-1.26   c0.52-0.44,1-0.879,1.44-1.32c-0.24-0.24-0.471-0.549-0.69-0.93c-0.22-0.38-0.471-0.77-0.75-1.17c-0.28-0.399-0.59-0.739-0.93-1.02   C319.698,473.014,319.308,472.873,318.868,472.873z M320.608,486.853c0,1.32,0.189,2.28,0.57,2.88c0.38,0.6,0.79,1.12,1.23,1.56   c1.32,1.08,2.31,2.25,2.97,3.51c0.66,1.26,1.29,2.52,1.89,3.78c0.6,1.26,1.299,2.471,2.1,3.63c0.8,1.161,1.959,2.18,3.48,3.06   c0.44-0.44,0.66-0.92,0.66-1.44c0-0.519-0.22-1.22-0.66-2.1c-1.08-1.08-2.09-2.25-3.03-3.51c-0.94-1.26-1.87-2.55-2.79-3.87   c-0.92-1.32-1.89-2.619-2.91-3.9C323.098,489.173,321.928,487.974,320.608,486.853z M342.448,502.633   c-0.681,0.44-1.431,0.7-2.25,0.78c-0.82,0.081-1.641,0.18-2.46,0.3c-0.82,0.12-1.59,0.33-2.31,0.63c-0.72,0.3-1.3,0.89-1.74,1.77   h6.12L342.448,502.633z"/>
	<path d="M380.788,462.553c1.839,1.161,3.47,2.541,4.89,4.14c1.42,1.6,2.59,3.36,3.51,5.28s1.62,3.98,2.1,6.18   c0.48,2.2,0.721,4.46,0.721,6.78c-0.24,1.881-0.551,3.73-0.93,5.55c-0.381,1.82-0.921,3.55-1.621,5.19   c-0.699,1.641-1.6,3.141-2.699,4.5c-1.101,1.36-2.47,2.5-4.11,3.42c-1.401,1.879-3.011,3.429-4.83,4.65   c-1.821,1.22-3.75,2.18-5.79,2.88c-2.04,0.7-4.15,1.19-6.33,1.47c-2.181,0.279-4.311,0.42-6.39,0.42   c-2.2-0.48-4.041-1.251-5.52-2.311c-1.48-1.06-2.73-2.31-3.75-3.75s-1.83-3.02-2.43-4.74c-0.6-1.72-1.09-3.51-1.47-5.37   c-0.38-1.86-0.69-3.729-0.93-5.61c-0.24-1.88-0.52-3.68-0.84-5.4c1.16-2.319,2.41-4.759,3.75-7.32c1.34-2.56,2.859-4.97,4.56-7.23   c1.7-2.259,3.63-4.26,5.79-6c2.16-1.74,4.64-2.97,7.44-3.69c1.16,0,2.37-0.12,3.63-0.36c1.26-0.24,2.529-0.42,3.81-0.54   c1.28-0.12,2.55-0.069,3.81,0.15C378.418,461.063,379.627,461.633,380.788,462.553z M350.908,475.633   c-0.92,1.88-1.821,3.59-2.7,5.13c-0.88,1.541-1.54,3.23-1.98,5.07c0.32,1.401,0.56,2.85,0.72,4.35c0.159,1.5,0.32,2.991,0.48,4.47   c0.159,1.48,0.39,2.95,0.69,4.41c0.3,1.461,0.74,2.85,1.32,4.17c0.58,1.32,1.359,2.569,2.34,3.75c0.979,1.179,2.25,2.229,3.81,3.15   c1.839,0.96,3.74,1.479,5.7,1.56c1.959,0.08,3.9-0.12,5.82-0.6c1.92-0.48,3.799-1.14,5.64-1.98c1.839-0.84,3.58-1.72,5.22-2.64   c-2.121,0.24-4.26,0.38-6.42,0.42c-2.16,0.04-4.26-0.15-6.3-0.57s-3.96-1.121-5.76-2.1c-1.8-0.979-3.4-2.409-4.8-4.29   c-1.4-1.64-2.52-3.48-3.36-5.52c-0.84-2.04-1.4-4.14-1.68-6.3c-0.281-2.16-0.311-4.31-0.09-6.45   C349.777,479.524,350.227,477.514,350.908,475.633z M361.228,465.313c-1.641,0.72-3.01,1.701-4.11,2.94   c-1.101,1.24-2.031,2.62-2.79,4.14c-0.76,1.521-1.4,3.12-1.92,4.8c-0.521,1.68-1.02,3.34-1.5,4.98c0,2.32,0.24,4.57,0.72,6.75   c0.48,2.181,1.179,4.2,2.1,6.06c0.92,1.86,2.08,3.53,3.48,5.01c1.4,1.48,3.04,2.68,4.92,3.6c1.64,0.48,3.41,0.87,5.31,1.17   c1.899,0.3,3.81,0.39,5.73,0.27c1.92-0.12,3.78-0.5,5.58-1.14c1.8-0.639,3.399-1.659,4.8-3.06c1.64-1.64,2.989-3.48,4.05-5.52   c1.06-2.04,1.82-4.17,2.28-6.39c0.459-2.22,0.64-4.46,0.54-6.72c-0.101-2.259-0.51-4.449-1.23-6.57c-0.48-1.64-1.16-3.2-2.039-4.68   c-0.881-1.479-1.911-2.799-3.091-3.96c-1.18-1.16-2.451-2.13-3.81-2.91c-1.36-0.78-2.74-1.29-4.14-1.53   c0,0.48-0.041,0.801-0.12,0.96c-0.081,0.16-0.34,0.46-0.78,0.9c-0.96-0.96-2.05-1.58-3.27-1.86c-1.22-0.279-2.47-0.33-3.75-0.15   c-1.28,0.18-2.53,0.54-3.75,1.08C363.217,464.023,362.147,464.633,361.228,465.313z M380.788,479.353   c0.24,1.641,0.2,3.161-0.12,4.56c-0.321,1.401-0.831,2.68-1.53,3.84c-0.7,1.16-1.551,2.21-2.55,3.15c-1,0.94-2.081,1.77-3.24,2.49   c-0.24-0.24-0.531-0.379-0.87-0.42c-0.34-0.04-0.71-0.06-1.11-0.06c-0.4,0-0.831-0.03-1.29-0.09c-0.46-0.06-0.93-0.21-1.41-0.45   c-0.681-0.24-1.371-0.57-2.07-0.99c-0.7-0.42-1.371-0.89-2.01-1.41c-0.641-0.52-1.251-1.05-1.83-1.59   c-0.581-0.54-1.09-1.05-1.53-1.53c-0.72-1.399-1.161-2.839-1.32-4.32c-0.16-1.479-0.09-2.919,0.21-4.32   c0.3-1.4,0.79-2.72,1.47-3.96c0.68-1.24,1.479-2.34,2.4-3.3c0.48-0.48,1.01-0.849,1.59-1.11c0.58-0.26,1.19-0.51,1.83-0.75   c0.639-0.24,1.299-0.5,1.98-0.78c0.68-0.279,1.359-0.66,2.04-1.14c1.16,0.72,2.259,1.54,3.3,2.46c1.04,0.92,1.97,1.911,2.79,2.97   c0.819,1.061,1.51,2.16,2.07,3.3C380.147,477.043,380.548,478.193,380.788,479.353z M373.348,470.053   c-0.48-0.48-0.91-0.699-1.29-0.66c-0.38,0.041-0.741,0.141-1.08,0.3c-0.34,0.16-0.69,0.32-1.05,0.48   c-0.36,0.16-0.78,0.12-1.26-0.12c-1.881,0.44-3.33,1.281-4.35,2.52c-1.02,1.24-1.75,2.56-2.19,3.96c2.76,0,5.559,0.94,8.4,2.82   c0.72,0.48,1.41,1.061,2.07,1.74c0.66,0.681,1.25,1.431,1.77,2.25c0.52,0.82,0.939,1.68,1.26,2.58c0.319,0.9,0.48,1.83,0.48,2.79   c0.48-0.24,0.89-0.58,1.23-1.02c0.339-0.44,0.63-0.93,0.87-1.47c0.24-0.54,0.42-1.08,0.54-1.62c0.12-0.54,0.18-1.05,0.18-1.53   c0-2.799-0.471-5.21-1.41-7.23C376.578,473.824,375.187,471.894,373.348,470.053z M365.908,479.353   c-0.521-0.48-1.17-0.72-1.95-0.72c-0.78,0-1.39,0.24-1.83,0.72c0,0.921,0.009,1.84,0.03,2.76c0.02,0.92,0.12,1.791,0.3,2.61   c0.18,0.82,0.459,1.57,0.84,2.25c0.379,0.681,0.909,1.26,1.59,1.74c0.72,0.48,1.43,0.93,2.13,1.35c0.7,0.42,1.4,0.741,2.1,0.96   c0.699,0.221,1.4,0.311,2.1,0.27c0.699-0.039,1.41-0.279,2.13-0.72c0-0.48,0.04-0.95,0.12-1.41c0.08-0.459,0.15-0.919,0.21-1.38   c0.06-0.459,0.08-0.93,0.06-1.41c-0.021-0.48-0.15-0.96-0.39-1.44c-0.96-1.399-1.98-2.559-3.06-3.48   C369.208,480.534,367.747,479.833,365.908,479.353z"/>
	<path d="M440.667,462.613c0.2,1.92,0.279,3.87,0.24,5.85c-0.04,1.98-0.09,3.97-0.15,5.97c-0.06,2-0.06,4,0,6   c0.061,2,0.31,3.96,0.75,5.88c0.2,1.041,0.279,2.091,0.24,3.15c-0.04,1.06-0.12,2.121-0.24,3.18c-0.12,1.061-0.2,2.121-0.239,3.18   c-0.041,1.06,0.039,2.13,0.239,3.21l-4.26,4.98l0.84,0.9c-0.84,0.64-1.68,1.01-2.52,1.11c-0.84,0.1-1.681,0.15-2.521,0.15   s-1.68,0.049-2.52,0.15c-0.84,0.099-1.681,0.47-2.521,1.11c-0.44-0.201-0.689-0.4-0.75-0.6c-0.06-0.201-0.029-0.38,0.09-0.54   c0.16-0.16,0.38-0.34,0.66-0.54c-0.239-0.641-0.38-1.281-0.42-1.92c-0.04-0.639-0.06-1.269-0.06-1.89c0-0.62-0.011-1.25-0.03-1.89   c-0.021-0.64-0.15-1.26-0.39-1.86c0-2.16-0.171-4.29-0.511-6.39s-0.729-4.209-1.17-6.33c-0.2,0.84-0.5,1.59-0.899,2.25   c-0.4,0.66-0.811,1.311-1.23,1.95c-0.42,0.64-0.82,1.3-1.2,1.98c-0.38,0.681-0.689,1.44-0.93,2.28l0.9,0.84l-1.74,0.84   c-0.44-0.399-0.87-0.59-1.29-0.57c-0.42,0.021-0.84,0.111-1.26,0.27c-0.42,0.161-0.84,0.3-1.26,0.42   c-0.421,0.12-0.851,0.081-1.29-0.12c-0.441-0.64-0.951-1.23-1.53-1.77c-0.58-0.54-1.19-1.07-1.83-1.59   c-0.641-0.52-1.26-1.06-1.86-1.62c-0.6-0.56-1.12-1.16-1.56-1.8c-0.201,2.121-0.171,4.14,0.09,6.06c0.26,1.92,0.42,3.78,0.48,5.58   c0.06,1.8-0.15,3.549-0.631,5.25c-0.479,1.7-1.56,3.41-3.239,5.13c-0.641,0-1.32,0.09-2.04,0.27c-0.721,0.18-1.45,0.399-2.19,0.66   c-0.74,0.26-1.47,0.54-2.189,0.84c-0.721,0.3-1.401,0.549-2.04,0.75c-0.641-1.48-1.051-3.05-1.23-4.71   c-0.18-1.66-0.27-3.36-0.27-5.1c0-1.74,0.009-3.5,0.029-5.28c0.021-1.779-0.07-3.51-0.27-5.19c0-2.16-0.171-4.29-0.51-6.39   c-0.341-2.1-0.73-4.209-1.171-6.33c0.64-1.08,1.101-2.149,1.381-3.21c0.279-1.059,0.52-2.109,0.72-3.15   c0.199-1.04,0.45-2.09,0.75-3.15c0.3-1.06,0.77-2.109,1.41-3.15c0-0.2-0.04-0.32-0.12-0.36c-0.081-0.039-0.18-0.06-0.3-0.06   s-0.221-0.02-0.3-0.06c-0.081-0.04-0.12-0.16-0.12-0.36c0.199,0,0.489,0,0.87,0c0.379,0,0.779-0.03,1.199-0.09s0.83-0.15,1.23-0.27   c0.399-0.12,0.699-0.3,0.899-0.54c0.841,0.24,1.63,0.33,2.37,0.27s1.43-0.14,2.07-0.24c0.64-0.1,1.209-0.18,1.71-0.24   c0.5-0.06,0.97,0.01,1.41,0.21c0.84,0.84,1.729,1.65,2.67,2.43c0.939,0.78,1.86,1.56,2.76,2.34c0.9,0.78,1.76,1.611,2.58,2.49   c0.819,0.88,1.55,1.84,2.19,2.88c1.279-2.12,2.55-4.359,3.81-6.72c1.26-2.359,2.529-4.62,3.811-6.78   c1.719,0,3.379-0.069,4.979-0.21c1.6-0.14,3.039-0.63,4.32-1.47c0.399,0.441,0.85,0.61,1.35,0.51c0.5-0.1,0.99-0.21,1.47-0.33   c0.48-0.12,0.92-0.11,1.32,0.03C440.106,461.284,440.427,461.773,440.667,462.613z M397.527,470.233   c-0.44,1.041-0.86,2.09-1.26,3.15c-0.4,1.06-0.73,2.11-0.99,3.15c-0.261,1.041-0.431,2.091-0.51,3.15   c-0.081,1.061-0.021,2.13,0.18,3.21c0.439,2.121,0.78,4.331,1.02,6.63c0.24,2.301,0.41,4.611,0.511,6.93   c0.099,2.32,0.159,4.62,0.18,6.9c0.02,2.28,0.03,4.479,0.03,6.6c0.439-0.84,0.829-1.68,1.17-2.52c0.339-0.84,0.51-1.68,0.51-2.52   c0-5.919-0.04-11.7-0.12-17.34S397.927,476.153,397.527,470.233z M434.728,462.613c-0.841,0.44-1.891,0.72-3.15,0.84   s-2.751,0.4-4.47,0.84c-0.641,0.641-1.19,1.32-1.65,2.04c-0.46,0.72-0.899,1.461-1.32,2.22c-0.42,0.76-0.86,1.5-1.319,2.22   c-0.461,0.72-1.011,1.401-1.65,2.04c-0.2,0.4-0.37,0.851-0.51,1.35c-0.141,0.5-0.291,1.011-0.45,1.53   c-0.16,0.52-0.36,1.041-0.6,1.56c-0.24,0.52-0.561,0.98-0.96,1.38c-0.641-1.04-1.36-2.04-2.16-3c-0.801-0.96-1.631-1.92-2.49-2.88   c-0.86-0.96-1.69-1.92-2.49-2.88c-0.801-0.96-1.521-1.959-2.16-3c-1.68,0-3.51,0.03-5.489,0.09c-1.98,0.06-3.811,0.31-5.49,0.75   c0.439,5.96,0.69,11.85,0.75,17.67c0.06,5.82,0.09,11.47,0.09,16.95c0.2,0,0.35,0.051,0.45,0.15c0.1,0.1,0.189,0.19,0.27,0.27   c0.08,0.16,0.12,0.3,0.12,0.42c1.28,0.44,2.55,0.621,3.811,0.54c1.26-0.08,2.51-0.54,3.75-1.38l-0.84-0.84   c0.84-5.04,0.84-10.1,0-15.18c0.199-0.639,0.289-1.41,0.27-2.31c-0.021-0.9-0.03-1.83-0.03-2.79s0.09-1.89,0.271-2.79   c0.18-0.9,0.569-1.67,1.17-2.31c0.24,0,0.42,0.04,0.54,0.12c0.12,0.081,0.24,0.18,0.359,0.3c0.12,0.12,0.24,0.22,0.36,0.3   c0.12,0.081,0.279,0.12,0.48,0.12c-0.201,0.84-0.181,1.601,0.06,2.28c0.24,0.68,0.57,1.311,0.99,1.89   c0.42,0.581,0.859,1.14,1.32,1.68c0.459,0.54,0.789,1.13,0.989,1.77c0.399,0.24,0.85,0.471,1.351,0.69   c0.499,0.22,0.969,0.49,1.41,0.81c0.439,0.321,0.799,0.7,1.079,1.14c0.28,0.44,0.421,0.98,0.421,1.62c0.398,0,0.819-0.09,1.26-0.27   c0.439-0.18,0.87-0.369,1.29-0.57c0.42-0.2,0.84-0.39,1.26-0.57c0.42-0.18,0.85-0.27,1.29-0.27l3.36-6.78   c0.439-1.28,0.869-2.52,1.29-3.72c0.42-1.2,0.849-2.22,1.289-3.06c0.12,0,0.26,0.04,0.421,0.12c0.079,0.081,0.169,0.17,0.27,0.27   c0.1,0.1,0.15,0.25,0.15,0.45c0.439,2.121,0.829,4.23,1.17,6.33c0.339,2.1,0.51,4.23,0.51,6.39c0,1.28,0.12,2.47,0.36,3.57   c0.239,1.101,0.459,2.17,0.659,3.21c0.2,1.041,0.32,2.11,0.36,3.21c0.039,1.101-0.141,2.271-0.54,3.51   c0.64-0.2,1.27-0.36,1.89-0.48c0.62-0.12,1.25-0.26,1.891-0.42c0.64-0.16,1.27-0.35,1.89-0.57c0.62-0.219,1.25-0.549,1.891-0.99   l0.899-13.62c-0.641-1.68-1.05-3.41-1.229-5.19c-0.181-1.779-0.271-3.57-0.271-5.37s0.01-3.59,0.03-5.37   c0.02-1.779-0.07-3.51-0.271-5.19c-0.2-0.84-0.46-1.239-0.779-1.2c-0.321,0.04-0.66,0.19-1.021,0.45   c-0.359,0.261-0.75,0.471-1.17,0.63C435.537,463.494,435.127,463.253,434.728,462.613z M400.047,504.913   c-0.84,0.84-1.33,1.82-1.47,2.94c-0.141,1.12-0.21,2.12-0.21,3l5.94-0.9c0.84-0.84,1.459-1.72,1.859-2.64   c0.399-0.92,0.601-2.02,0.601-3.3c-0.801,0.439-1.801,0.81-3,1.11C402.567,505.423,401.327,505.353,400.047,504.913z    M408.447,479.533v1.68c-0.201,1.28-0.201,2.5,0,3.66c0.199,1.161,0.56,2.241,1.08,3.24c0.52,1,1.2,1.92,2.04,2.76   c0.84,0.84,1.779,1.581,2.819,2.22c0.721-1,1.11-1.91,1.171-2.73c0.06-0.819-0.081-1.59-0.421-2.31c-0.34-0.72-0.83-1.41-1.47-2.07   c-0.641-0.66-1.3-1.33-1.979-2.01c-0.681-0.68-1.32-1.38-1.92-2.1C409.167,481.153,408.727,480.373,408.447,479.533z    M422.067,488.833c-0.881,0.441-1.74,0.72-2.58,0.84c-0.84,0.12-1.68,0.4-2.521,0.84l-0.84,4.26c0.84,0,1.5-0.14,1.98-0.42   c0.479-0.279,0.939-0.42,1.38-0.42c0.84-0.84,1.369-1.689,1.59-2.55C421.297,490.523,421.627,489.673,422.067,488.833z    M428.847,476.953l-2.579,6.78c0.439,1.68,0.779,3.37,1.02,5.07c0.24,1.701,0.439,3.4,0.6,5.1c0.16,1.701,0.31,3.39,0.45,5.07   c0.14,1.68,0.31,3.36,0.51,5.04c0.841-1.28,1.471-2.57,1.891-3.87c0.42-1.299,0.63-2.81,0.63-4.53   c-0.44-1.479-0.771-2.97-0.99-4.47s-0.41-3.02-0.569-4.56c-0.161-1.539-0.311-3.109-0.45-4.71   C429.217,480.274,429.047,478.633,428.847,476.953z M439.768,499.873c-0.841,0.4-1.801,0.66-2.881,0.78   c-1.079,0.12-2.15,0.31-3.21,0.57c-1.06,0.261-2.03,0.71-2.909,1.35c-0.881,0.64-1.521,1.7-1.921,3.18   c1.28-0.441,2.4-0.69,3.36-0.75c0.96-0.06,2.079-0.09,3.36-0.09L439.768,499.873z"/>
	<path d="M501.567,462.853c0.199,0.921,0.319,1.791,0.359,2.61c0.04,0.82,0.061,1.62,0.061,2.4c0,0.78,0.02,1.581,0.06,2.4   c0.039,0.82,0.159,1.67,0.36,2.55c-0.681,0-1.211,0.201-1.59,0.6c-0.381,0.4-0.681,0.891-0.9,1.47c-0.221,0.58-0.4,1.18-0.54,1.8   c-0.141,0.621-0.33,1.15-0.57,1.59c0,0.201,0.04,0.411,0.12,0.63c0.08,0.22,0.15,0.42,0.21,0.6c0.061,0.18,0.08,0.33,0.061,0.45   c-0.021,0.12-0.15,0.18-0.391,0.18c-0.92-0.52-1.83-0.93-2.729-1.23c-0.9-0.3-1.811-0.23-2.73,0.21c-0.92,0.52-1.8,1.041-2.64,1.56   c-0.84,0.52-1.5,1.24-1.98,2.16c0,0.921,0.021,1.92,0.061,3c0.039,1.08,0.17,2.13,0.39,3.15s0.58,1.96,1.08,2.82   c0.5,0.86,1.21,1.51,2.13,1.95c0.92,0.44,1.88,0.68,2.88,0.72c1,0.041,2.011-0.02,3.03-0.18c1.021-0.159,2.03-0.39,3.03-0.69   c0.999-0.3,1.959-0.57,2.88-0.81c0.24,0,0.42-0.09,0.54-0.27c0.12-0.18,0.24-0.39,0.36-0.63c0.119-0.24,0.249-0.45,0.39-0.63   c0.14-0.18,0.33-0.27,0.57-0.27c0.439,0.681,0.739,1.45,0.899,2.31c0.159,0.86,0.271,1.72,0.33,2.58   c0.061,0.86,0.109,1.66,0.15,2.4c0.039,0.741,0.18,1.33,0.42,1.77c0,0.48-0.101,0.85-0.3,1.11c-0.201,0.261-0.441,0.471-0.721,0.63   c-0.28,0.161-0.58,0.311-0.899,0.45c-0.321,0.141-0.601,0.33-0.84,0.57c-0.441,0.48-0.881,1.041-1.32,1.68   c-0.44,0.639-0.891,1.29-1.351,1.95c-0.46,0.66-0.91,1.31-1.35,1.95c-0.44,0.64-0.9,1.2-1.38,1.68c-1.161-0.24-2.25-0.34-3.271-0.3   c-1.02,0.04-2.02,0.06-3,0.06s-1.93-0.1-2.85-0.3c-0.921-0.201-1.82-0.64-2.7-1.32c-0.681,0.24-1.311,0.279-1.89,0.12   c-0.58-0.16-1.161-0.411-1.74-0.75c-0.58-0.34-1.16-0.71-1.74-1.11c-0.58-0.4-1.21-0.72-1.89-0.96c-0.921-0.48-1.83-0.9-2.729-1.26   c-0.9-0.36-1.781-0.77-2.641-1.23c-0.86-0.459-1.68-0.99-2.46-1.59s-1.51-1.359-2.189-2.28c0-1.359-0.15-2.87-0.45-4.53   c-0.3-1.659-0.45-3.189-0.45-4.59c0.92-0.879,1.83-1.92,2.729-3.12c0.9-1.2,1.81-2.259,2.73-3.18c0.879-2.28,1.91-4.62,3.09-7.02   c1.18-2.4,2.529-4.65,4.05-6.75c1.521-2.1,3.26-3.95,5.221-5.55c1.959-1.599,4.199-2.739,6.72-3.42c1.359,0,2.689,0.19,3.99,0.57   C499.536,461.944,500.646,462.373,501.567,462.853z M474.267,487.333c-0.44,0.48-0.88,0.951-1.319,1.41   c-0.44,0.46-0.801,0.951-1.08,1.47c-0.28,0.52-0.471,1.07-0.57,1.65c-0.101,0.58-0.03,1.21,0.21,1.89   c-0.16,1.36-0.06,2.51,0.3,3.45c0.36,0.94,0.89,1.761,1.591,2.46c0.699,0.7,1.52,1.3,2.46,1.8c0.938,0.5,1.899,0.99,2.88,1.47   c0.979,0.48,1.949,0.99,2.91,1.53c0.96,0.54,1.819,1.189,2.579,1.95c1.12,0.24,2.25,0.51,3.391,0.81c1.14,0.3,2.31,0.57,3.51,0.81   c1.2,0.24,2.439,0.39,3.72,0.45c1.28,0.06,2.6-0.03,3.96-0.27c0.88-0.921,1.63-1.821,2.25-2.7c0.62-0.88,1.37-1.779,2.25-2.7   c0-0.399-0.16-0.519-0.479-0.36c-0.16,0.081-0.3,0.201-0.42,0.36c-1.36,0.681-2.82,1.191-4.38,1.53   c-1.561,0.339-3.131,0.51-4.71,0.51c-1.581,0-3.15-0.17-4.71-0.51c-1.561-0.339-3.021-0.85-4.381-1.53   c-1.6-0.68-3.021-1.569-4.26-2.67c-1.24-1.1-2.28-2.33-3.12-3.69c-0.84-1.359-1.48-2.82-1.92-4.38   C474.486,490.513,474.267,488.934,474.267,487.333z M494.247,462.853c-2.28,0.681-4.29,1.71-6.03,3.09   c-1.74,1.38-3.29,2.95-4.649,4.71c-1.36,1.76-2.571,3.621-3.631,5.58c-1.06,1.96-2.03,3.84-2.909,5.64   c-0.24,0.48-0.351,0.94-0.33,1.38c0.02,0.44,0.06,0.831,0.12,1.17c0.06,0.34,0.06,0.61,0,0.81c-0.061,0.2-0.33,0.3-0.811,0.3   c-0.44,1.4-0.51,2.771-0.21,4.11c0.3,1.341,0.71,2.71,1.23,4.11c0.439,1.12,1.039,2.18,1.8,3.18c0.759,1,1.649,1.9,2.67,2.7   c1.02,0.8,2.14,1.47,3.36,2.01c1.22,0.54,2.509,0.93,3.869,1.17c1.6,0.48,3.1,0.6,4.5,0.36c1.4-0.24,2.761-0.59,4.08-1.05   c1.32-0.459,2.61-0.919,3.87-1.38c1.26-0.459,2.57-0.69,3.931-0.69c0.479-0.44,0.75-0.89,0.81-1.35c0.06-0.459,0.06-0.95,0-1.47   c-0.06-0.52-0.11-1.06-0.15-1.62c-0.04-0.56,0.061-1.18,0.301-1.86l-6.36,1.74c-0.681,0.48-1.36,0.7-2.04,0.66   c-0.681-0.04-1.371-0.14-2.07-0.3c-0.7-0.159-1.39-0.319-2.069-0.48c-0.681-0.159-1.36-0.12-2.04,0.12   c-1.161-0.68-2.001-1.459-2.521-2.34c-0.521-0.879-0.891-1.83-1.109-2.85c-0.221-1.02-0.371-2.08-0.45-3.18   c-0.081-1.1-0.24-2.229-0.48-3.39c0-2.32,0.229-4.57,0.69-6.75c0.459-2.18,1.149-4.17,2.069-5.97c0.68-0.439,1.41-0.74,2.19-0.9   c0.78-0.16,1.6-0.24,2.46-0.24c0.859,0,1.74,0.03,2.64,0.09c0.9,0.06,1.81,0.09,2.73,0.09c0.199-0.2,0.319-0.459,0.36-0.78   c0.039-0.319,0.029-0.649-0.03-0.99c-0.061-0.339-0.131-0.669-0.21-0.99c-0.081-0.319-0.12-0.579-0.12-0.78   c0-0.24-0.09-0.48-0.271-0.72c-0.18-0.24-0.329-0.469-0.449-0.69c-0.12-0.219-0.15-0.439-0.09-0.66c0.06-0.22,0.329-0.45,0.81-0.69   c-0.921-0.44-1.83-0.7-2.73-0.78C496.077,462.894,495.167,462.853,494.247,462.853z M490.647,473.713c0,0.48-0.101,0.95-0.301,1.41   c-0.2,0.46-0.39,0.951-0.569,1.47c-0.181,0.52-0.301,1.07-0.36,1.65c-0.06,0.581,0.03,1.21,0.27,1.89c0.44-0.24,0.939-0.6,1.5-1.08   s1.16-0.89,1.801-1.23c0.639-0.339,1.29-0.52,1.949-0.54c0.66-0.02,1.33,0.31,2.011,0.99c0.239-0.439,0.51-0.939,0.81-1.5   c0.3-0.56,0.57-1.119,0.811-1.68c0.239-0.56,0.399-1.12,0.479-1.68c0.08-0.56,0-1.059-0.24-1.5c-0.681,0-1.409-0.03-2.189-0.09   s-1.54-0.06-2.28,0s-1.431,0.22-2.07,0.48C491.627,472.564,491.087,473.034,490.647,473.713z"/>
	<path d="M545.366,462.553c1.839,1.161,3.47,2.541,4.89,4.14c1.419,1.6,2.59,3.36,3.51,5.28s1.62,3.98,2.101,6.18   c0.479,2.2,0.72,4.46,0.72,6.78c-0.24,1.881-0.551,3.73-0.93,5.55c-0.381,1.82-0.921,3.55-1.62,5.19   c-0.7,1.641-1.601,3.141-2.7,4.5c-1.101,1.36-2.471,2.5-4.11,3.42c-1.4,1.879-3.01,3.429-4.83,4.65c-1.82,1.22-3.75,2.18-5.79,2.88   c-2.04,0.7-4.15,1.19-6.33,1.47c-2.18,0.279-4.311,0.42-6.39,0.42c-2.2-0.48-4.04-1.251-5.52-2.311c-1.48-1.06-2.73-2.31-3.75-3.75   c-1.021-1.44-1.83-3.02-2.431-4.74c-0.6-1.72-1.09-3.51-1.47-5.37c-0.381-1.86-0.69-3.729-0.93-5.61   c-0.24-1.88-0.521-3.68-0.84-5.4c1.159-2.319,2.409-4.759,3.75-7.32c1.339-2.56,2.859-4.97,4.56-7.23c1.699-2.259,3.63-4.26,5.79-6   c2.16-1.74,4.64-2.97,7.44-3.69c1.159,0,2.369-0.12,3.63-0.36c1.26-0.24,2.529-0.42,3.81-0.54c1.279-0.12,2.55-0.069,3.811,0.15   C542.996,461.063,544.205,461.633,545.366,462.553z M515.486,475.633c-0.921,1.88-1.821,3.59-2.7,5.13   c-0.881,1.541-1.541,3.23-1.98,5.07c0.32,1.401,0.56,2.85,0.72,4.35s0.32,2.991,0.48,4.47c0.159,1.48,0.39,2.95,0.69,4.41   c0.3,1.461,0.739,2.85,1.319,4.17c0.58,1.32,1.359,2.569,2.34,3.75c0.98,1.179,2.25,2.229,3.811,3.15   c1.839,0.96,3.739,1.479,5.7,1.56c1.959,0.08,3.899-0.12,5.819-0.6s3.8-1.14,5.641-1.98c1.839-0.84,3.579-1.72,5.22-2.64   c-2.121,0.24-4.26,0.38-6.42,0.42c-2.16,0.04-4.26-0.15-6.3-0.57s-3.96-1.121-5.761-2.1c-1.8-0.979-3.399-2.409-4.8-4.29   c-1.4-1.64-2.52-3.48-3.359-5.52c-0.841-2.04-1.401-4.14-1.681-6.3c-0.28-2.16-0.31-4.31-0.09-6.45   C514.355,479.524,514.806,477.514,515.486,475.633z M525.806,465.313c-1.641,0.72-3.01,1.701-4.109,2.94   c-1.101,1.24-2.031,2.62-2.79,4.14c-0.761,1.521-1.401,3.12-1.92,4.8c-0.521,1.68-1.021,3.34-1.5,4.98c0,2.32,0.239,4.57,0.72,6.75   c0.479,2.181,1.179,4.2,2.1,6.06c0.92,1.86,2.079,3.53,3.48,5.01c1.399,1.48,3.039,2.68,4.92,3.6c1.64,0.48,3.409,0.87,5.31,1.17   c1.899,0.3,3.811,0.39,5.73,0.27s3.779-0.5,5.58-1.14c1.8-0.639,3.399-1.659,4.8-3.06c1.64-1.64,2.989-3.48,4.05-5.52   c1.06-2.04,1.819-4.17,2.28-6.39c0.459-2.22,0.64-4.46,0.54-6.72c-0.101-2.259-0.51-4.449-1.23-6.57   c-0.479-1.64-1.16-3.2-2.04-4.68c-0.88-1.479-1.91-2.799-3.09-3.96c-1.181-1.16-2.45-2.13-3.81-2.91   c-1.36-0.78-2.74-1.29-4.141-1.53c0,0.48-0.04,0.801-0.12,0.96c-0.08,0.16-0.34,0.46-0.779,0.9c-0.96-0.96-2.051-1.58-3.271-1.86   c-1.221-0.279-2.47-0.33-3.75-0.15c-1.28,0.18-2.53,0.54-3.75,1.08C527.795,464.023,526.726,464.633,525.806,465.313z    M545.366,479.353c0.239,1.641,0.199,3.161-0.12,4.56c-0.321,1.401-0.831,2.68-1.53,3.84c-0.7,1.16-1.551,2.21-2.55,3.15   c-1,0.94-2.08,1.77-3.24,2.49c-0.24-0.24-0.53-0.379-0.87-0.42c-0.34-0.04-0.71-0.06-1.109-0.06c-0.4,0-0.831-0.03-1.29-0.09   c-0.461-0.06-0.931-0.21-1.41-0.45c-0.681-0.24-1.371-0.57-2.07-0.99c-0.7-0.42-1.37-0.89-2.01-1.41   c-0.641-0.52-1.251-1.05-1.83-1.59c-0.58-0.54-1.091-1.05-1.53-1.53c-0.72-1.399-1.16-2.839-1.319-4.32   c-0.161-1.479-0.091-2.919,0.21-4.32c0.3-1.4,0.789-2.72,1.47-3.96c0.68-1.24,1.479-2.34,2.399-3.3   c0.48-0.48,1.01-0.849,1.591-1.11c0.579-0.26,1.189-0.51,1.83-0.75c0.639-0.24,1.299-0.5,1.979-0.78   c0.68-0.279,1.359-0.66,2.04-1.14c1.16,0.72,2.26,1.54,3.3,2.46c1.04,0.92,1.97,1.911,2.79,2.97c0.819,1.061,1.51,2.16,2.07,3.3   C544.726,477.043,545.126,478.193,545.366,479.353z M537.926,470.053c-0.479-0.48-0.91-0.699-1.29-0.66   c-0.381,0.041-0.74,0.141-1.08,0.3c-0.34,0.16-0.689,0.32-1.05,0.48c-0.36,0.16-0.78,0.12-1.26-0.12   c-1.881,0.44-3.33,1.281-4.351,2.52c-1.02,1.24-1.75,2.56-2.189,3.96c2.76,0,5.56,0.94,8.399,2.82c0.721,0.48,1.41,1.061,2.07,1.74   c0.66,0.681,1.25,1.431,1.771,2.25c0.519,0.82,0.938,1.68,1.26,2.58c0.319,0.9,0.479,1.83,0.479,2.79   c0.48-0.24,0.89-0.58,1.23-1.02c0.339-0.44,0.63-0.93,0.87-1.47c0.239-0.54,0.42-1.08,0.54-1.62s0.18-1.05,0.18-1.53   c0-2.799-0.471-5.21-1.41-7.23C541.155,473.824,539.766,471.894,537.926,470.053z M530.486,479.353   c-0.521-0.48-1.171-0.72-1.95-0.72c-0.78,0-1.391,0.24-1.83,0.72c0,0.921,0.009,1.84,0.03,2.76c0.02,0.92,0.119,1.791,0.3,2.61   c0.18,0.82,0.459,1.57,0.84,2.25c0.38,0.681,0.909,1.26,1.59,1.74c0.72,0.48,1.43,0.93,2.13,1.35   c0.699,0.42,1.399,0.741,2.101,0.96c0.699,0.221,1.399,0.311,2.1,0.27c0.699-0.039,1.41-0.279,2.13-0.72   c0-0.48,0.039-0.95,0.12-1.41c0.08-0.459,0.15-0.919,0.21-1.38c0.06-0.459,0.08-0.93,0.06-1.41s-0.149-0.96-0.39-1.44   c-0.96-1.399-1.979-2.559-3.06-3.48C533.786,480.534,532.325,479.833,530.486,479.353z"/>
	<path d="M576.925,478.993v14.1c2.04,0,4.22-0.18,6.54-0.54c2.319-0.36,4.5-0.54,6.54-0.54c0.24,0,0.54-0.05,0.9-0.15   c0.36-0.1,0.739-0.18,1.14-0.24c0.399-0.06,0.78-0.069,1.141-0.03c0.359,0.04,0.66,0.18,0.899,0.42   c-0.239,0.76-0.479,1.57-0.72,2.43c-0.24,0.86-0.431,1.74-0.57,2.64c-0.141,0.9-0.2,1.78-0.18,2.64   c0.02,0.861,0.17,1.671,0.45,2.43v1.98l-7.08,6c0,0.279-0.061,0.489-0.18,0.63c-0.12,0.14-0.24,0.25-0.36,0.33   c-0.16,0.08-0.32,0.12-0.48,0.12c-0.239,0-0.53,0.039-0.869,0.12c-0.341,0.08-0.671,0.12-0.99,0.12c-0.321,0-0.591-0.09-0.811-0.27   c-0.22-0.18-0.33-0.531-0.33-1.05c-1.76,0.279-3.51,0.589-5.25,0.93c-1.739,0.339-3.47,0.63-5.189,0.87   c-1.721,0.24-3.39,0.399-5.01,0.48c-1.62,0.08-3.19,0-4.71-0.24c-0.761,0-1.29-0.161-1.591-0.48c-0.3-0.321-0.479-0.701-0.54-1.14   c-0.06-0.44-0.06-0.891,0-1.35c0.061-0.46,0.091-0.81,0.091-1.05c0-2.76,0.09-5.63,0.27-8.61c0.18-2.979,0.271-5.949,0.271-8.91   c0-2.96-0.171-5.859-0.511-8.7c-0.34-2.84-1.011-5.52-2.01-8.04c0.76-0.999,1.41-2.06,1.95-3.18c0.54-1.12,1.029-2.25,1.47-3.39   c0.439-1.14,0.86-2.259,1.26-3.36c0.399-1.1,0.841-2.169,1.32-3.21c0.52,0.28,0.979,0.43,1.38,0.45c0.399,0.021,0.76,0,1.08-0.06   s0.609-0.14,0.87-0.24c0.26-0.1,0.51-0.15,0.75-0.15c0.76,0.52,1.56,0.72,2.4,0.6c0.84-0.12,1.64-0.27,2.399-0.45   c0.76-0.18,1.43-0.26,2.01-0.24c0.58,0.021,0.99,0.411,1.23,1.17c0.48,1.281,0.76,2.65,0.84,4.11c0.08,1.46,0.09,2.94,0.03,4.44   c-0.061,1.5-0.11,2.991-0.15,4.47C576.585,476.333,576.686,477.713,576.925,478.993z M563.785,465.853l-4.02,7.02   c0.759,2.76,1.249,5.59,1.47,8.49c0.22,2.9,0.33,5.83,0.33,8.79c0,2.96-0.021,5.94-0.061,8.94s0.061,6.02,0.301,9.06l3.06-6   c0.24-3.04,0.319-6.069,0.24-9.09c-0.081-3.02-0.221-6.049-0.42-9.09c-0.201-3.04-0.4-6.069-0.601-9.09   C563.885,471.863,563.785,468.853,563.785,465.853z M591.025,503.113c-0.761,0.48-1.521,0.71-2.28,0.69   c-0.76-0.02-1.51-0.12-2.25-0.3c-0.74-0.18-1.49-0.35-2.25-0.51c-0.76-0.159-1.521-0.12-2.28,0.12c-1.28,0-2.54,0.15-3.779,0.45   c-1.24,0.3-2.46,0.57-3.66,0.81c-1.2,0.24-2.36,0.38-3.48,0.42c-1.12,0.04-2.181-0.18-3.18-0.66c-0.761,0-1.45,0.219-2.07,0.66   c-0.62,0.44-1.19,0.97-1.71,1.59c-0.52,0.62-0.97,1.28-1.35,1.98c-0.381,0.699-0.69,1.29-0.93,1.77l1.979,1.08l18.18-2.04   c0.52,0,0.99,0.039,1.41,0.12c0.42,0.08,0.63,0.36,0.63,0.84c1.521-1,2.82-2.17,3.9-3.51   C588.985,505.283,590.025,504.113,591.025,503.113z M570.865,461.833c-0.521,0-1.07,0.01-1.65,0.03   c-0.58,0.021-1.149,0.06-1.71,0.12c-0.561,0.06-1.08,0.15-1.56,0.27c-0.48,0.12-0.84,0.3-1.08,0.54c0,3.281,0.1,6.501,0.3,9.66   c0.2,3.16,0.43,6.291,0.69,9.39c0.26,3.1,0.489,6.16,0.689,9.18c0.2,3.021,0.301,6.051,0.301,9.09v3   c0.999,0.24,2.06,0.37,3.18,0.39c1.119,0.021,2.25-0.03,3.39-0.15c1.141-0.12,2.26-0.29,3.36-0.51c1.1-0.219,2.169-0.45,3.21-0.69   c0.76-0.279,1.52-0.43,2.28-0.45c0.759-0.02,1.539,0,2.34,0.06c0.8,0.06,1.649,0.141,2.55,0.24c0.9,0.1,1.85,0.15,2.85,0.15   c0.76-0.279,1.2-0.759,1.32-1.44c0.12-0.68,0.15-1.43,0.09-2.25c-0.06-0.819-0.1-1.64-0.12-2.46c-0.021-0.82,0.21-1.47,0.69-1.95   l-7.021-0.96c-0.76,0.24-1.56,0.39-2.399,0.45c-0.84,0.06-1.641,0.15-2.4,0.27c-0.76,0.12-1.431,0.34-2.01,0.66   c-0.58,0.321-0.99,0.84-1.23,1.56c-0.239,0.24-0.44,0.38-0.6,0.42c-0.16,0.041-0.3,0.03-0.42-0.03s-0.25-0.14-0.39-0.24   c-0.141-0.099-0.33-0.15-0.57-0.15c0-0.48,0.159-0.969,0.479-1.47c0.32-0.5,0.48-0.99,0.48-1.47c-0.24-1-0.381-2.07-0.42-3.21   c-0.04-1.14-0.03-2.31,0.03-3.51c0.06-1.2,0.14-2.419,0.239-3.66c0.1-1.24,0.15-2.48,0.15-3.72c-0.48-1.28-0.771-2.61-0.87-3.99   c-0.101-1.38-0.149-2.8-0.149-4.26c0-1.459-0.041-2.93-0.12-4.41c-0.081-1.479-0.36-2.979-0.841-4.5c0,0.48-0.11,0.851-0.329,1.11   c-0.221,0.26-0.491,0.39-0.811,0.39c-0.32,0-0.66-0.129-1.02-0.39C571.405,462.684,571.105,462.313,570.865,461.833z"/>
	<path d="M614.124,478.993v14.1c2.04,0,4.22-0.18,6.54-0.54c2.319-0.36,4.5-0.54,6.54-0.54c0.24,0,0.54-0.05,0.9-0.15   c0.36-0.1,0.739-0.18,1.14-0.24c0.399-0.06,0.78-0.069,1.141-0.03c0.359,0.04,0.66,0.18,0.899,0.42   c-0.239,0.76-0.479,1.57-0.72,2.43c-0.24,0.86-0.431,1.74-0.57,2.64c-0.141,0.9-0.2,1.78-0.18,2.64   c0.02,0.861,0.17,1.671,0.45,2.43v1.98l-7.08,6c0,0.279-0.061,0.489-0.18,0.63c-0.12,0.14-0.24,0.25-0.36,0.33   c-0.16,0.08-0.32,0.12-0.48,0.12c-0.239,0-0.53,0.039-0.869,0.12c-0.341,0.08-0.671,0.12-0.99,0.12c-0.321,0-0.591-0.09-0.811-0.27   c-0.22-0.18-0.33-0.531-0.33-1.05c-1.76,0.279-3.51,0.589-5.25,0.93c-1.739,0.339-3.47,0.63-5.189,0.87   c-1.721,0.24-3.39,0.399-5.01,0.48c-1.62,0.08-3.19,0-4.71-0.24c-0.761,0-1.29-0.161-1.591-0.48c-0.3-0.321-0.479-0.701-0.54-1.14   c-0.06-0.44-0.06-0.891,0-1.35c0.061-0.46,0.091-0.81,0.091-1.05c0-2.76,0.09-5.63,0.27-8.61c0.18-2.979,0.271-5.949,0.271-8.91   c0-2.96-0.171-5.859-0.511-8.7c-0.34-2.84-1.011-5.52-2.01-8.04c0.76-0.999,1.41-2.06,1.95-3.18c0.54-1.12,1.029-2.25,1.47-3.39   c0.439-1.14,0.86-2.259,1.26-3.36c0.399-1.1,0.841-2.169,1.32-3.21c0.52,0.28,0.979,0.43,1.38,0.45c0.399,0.021,0.76,0,1.08-0.06   s0.609-0.14,0.87-0.24c0.26-0.1,0.51-0.15,0.75-0.15c0.76,0.52,1.56,0.72,2.4,0.6c0.84-0.12,1.64-0.27,2.399-0.45   c0.76-0.18,1.43-0.26,2.01-0.24c0.58,0.021,0.99,0.411,1.23,1.17c0.48,1.281,0.76,2.65,0.84,4.11c0.08,1.46,0.09,2.94,0.03,4.44   c-0.061,1.5-0.11,2.991-0.15,4.47C613.784,476.333,613.885,477.713,614.124,478.993z M600.984,465.853l-4.02,7.02   c0.759,2.76,1.249,5.59,1.47,8.49c0.22,2.9,0.33,5.83,0.33,8.79c0,2.96-0.021,5.94-0.061,8.94s0.061,6.02,0.301,9.06l3.06-6   c0.24-3.04,0.319-6.069,0.24-9.09c-0.081-3.02-0.221-6.049-0.42-9.09c-0.201-3.04-0.4-6.069-0.601-9.09   C601.084,471.863,600.984,468.853,600.984,465.853z M628.225,503.113c-0.761,0.48-1.521,0.71-2.28,0.69   c-0.76-0.02-1.51-0.12-2.25-0.3c-0.74-0.18-1.49-0.35-2.25-0.51c-0.76-0.159-1.521-0.12-2.28,0.12c-1.28,0-2.54,0.15-3.779,0.45   c-1.24,0.3-2.46,0.57-3.66,0.81c-1.2,0.24-2.36,0.38-3.48,0.42c-1.12,0.04-2.181-0.18-3.18-0.66c-0.761,0-1.45,0.219-2.07,0.66   c-0.62,0.44-1.19,0.97-1.71,1.59c-0.52,0.62-0.97,1.28-1.35,1.98c-0.381,0.699-0.69,1.29-0.93,1.77l1.979,1.08l18.18-2.04   c0.52,0,0.99,0.039,1.41,0.12c0.42,0.08,0.63,0.36,0.63,0.84c1.521-1,2.82-2.17,3.9-3.51   C626.185,505.283,627.225,504.113,628.225,503.113z M608.064,461.833c-0.521,0-1.07,0.01-1.65,0.03   c-0.58,0.021-1.149,0.06-1.71,0.12c-0.561,0.06-1.08,0.15-1.56,0.27c-0.48,0.12-0.84,0.3-1.08,0.54c0,3.281,0.1,6.501,0.3,9.66   c0.2,3.16,0.43,6.291,0.69,9.39c0.26,3.1,0.489,6.16,0.689,9.18c0.2,3.021,0.301,6.051,0.301,9.09v3   c0.999,0.24,2.06,0.37,3.18,0.39c1.119,0.021,2.25-0.03,3.39-0.15c1.141-0.12,2.26-0.29,3.36-0.51c1.1-0.219,2.169-0.45,3.21-0.69   c0.76-0.279,1.52-0.43,2.28-0.45c0.759-0.02,1.539,0,2.34,0.06c0.8,0.06,1.649,0.141,2.55,0.24c0.9,0.1,1.85,0.15,2.85,0.15   c0.76-0.279,1.2-0.759,1.32-1.44c0.12-0.68,0.15-1.43,0.09-2.25c-0.06-0.819-0.1-1.64-0.12-2.46c-0.021-0.82,0.21-1.47,0.69-1.95   l-7.021-0.96c-0.76,0.24-1.56,0.39-2.399,0.45c-0.84,0.06-1.641,0.15-2.4,0.27c-0.76,0.12-1.431,0.34-2.01,0.66   c-0.58,0.321-0.99,0.84-1.23,1.56c-0.239,0.24-0.44,0.38-0.6,0.42c-0.16,0.041-0.3,0.03-0.42-0.03s-0.25-0.14-0.39-0.24   c-0.141-0.099-0.33-0.15-0.57-0.15c0-0.48,0.159-0.969,0.479-1.47c0.32-0.5,0.48-0.99,0.48-1.47c-0.24-1-0.381-2.07-0.42-3.21   c-0.04-1.14-0.03-2.31,0.03-3.51c0.06-1.2,0.14-2.419,0.239-3.66c0.1-1.24,0.15-2.48,0.15-3.72c-0.48-1.28-0.771-2.61-0.87-3.99   c-0.101-1.38-0.149-2.8-0.149-4.26c0-1.459-0.041-2.93-0.12-4.41c-0.081-1.479-0.36-2.979-0.841-4.5c0,0.48-0.11,0.851-0.329,1.11   c-0.221,0.26-0.491,0.39-0.811,0.39c-0.32,0-0.66-0.129-1.02-0.39C608.604,462.684,608.305,462.313,608.064,461.833z"/>
	<path d="M666.863,461.653c-0.479,0.48-0.76,1.07-0.84,1.77c-0.08,0.7-0.09,1.45-0.029,2.25c0.06,0.8,0.119,1.6,0.18,2.4   c0.06,0.801-0.03,1.56-0.271,2.28c-0.239,0.24-0.44,0.54-0.6,0.9c-0.16,0.36-0.3,0.72-0.42,1.08c-0.12,0.36-0.25,0.72-0.39,1.08   c-0.141,0.36-0.33,0.66-0.57,0.9c-1.2,0.24-2.36,0.18-3.48-0.18c-1.12-0.36-2.22-0.72-3.3-1.08s-2.181-0.59-3.3-0.69   c-1.12-0.1-2.301,0.21-3.54,0.93v6.84c0.96-0.24,1.88-0.53,2.76-0.87c0.88-0.339,1.75-0.66,2.61-0.96   c0.859-0.3,1.72-0.56,2.58-0.78c0.859-0.219,1.77-0.33,2.729-0.33c0.48,0.48,0.811,1.03,0.99,1.65c0.18,0.621,0.3,1.26,0.36,1.92   c0.06,0.66,0.12,1.36,0.18,2.1c0.06,0.741,0.21,1.47,0.45,2.19c-0.48,0-0.91,0.16-1.29,0.48c-0.381,0.321-0.72,0.72-1.021,1.2   c-0.3,0.48-0.58,1-0.84,1.56c-0.261,0.561-0.51,1.08-0.75,1.56l-4.859,0.96v2.94c0.96,0.48,1.92,0.53,2.88,0.15   c0.96-0.38,1.899-0.79,2.819-1.23c0.92-0.44,1.801-0.669,2.641-0.69c0.84-0.02,1.62,0.57,2.34,1.77c-0.24,0.72-0.381,1.5-0.42,2.34   c-0.04,0.84-0.03,1.69,0.03,2.55c0.06,0.861,0.14,1.71,0.239,2.55c0.1,0.84,0.15,1.62,0.15,2.34c-0.48,0.16-0.921,0.5-1.32,1.02   c-0.4,0.52-0.801,1.1-1.2,1.74c-0.399,0.64-0.81,1.29-1.229,1.95s-0.91,1.179-1.47,1.56c-0.561,0.38-1.2,0.56-1.92,0.54   c-0.721-0.021-1.561-0.351-2.521-0.99c-1.721,0.24-3.49,0.53-5.31,0.87c-1.821,0.339-3.671,0.66-5.551,0.96   c-1.88,0.3-3.79,0.56-5.729,0.78c-1.94,0.219-3.891,0.33-5.85,0.33c0.239-0.24,0.379-0.54,0.42-0.9c0.039-0.36,0.06-0.76,0.06-1.2   c0-0.441,0.02-0.9,0.06-1.38s0.181-0.96,0.421-1.44c0-5.839-0.041-11.67-0.12-17.49c-0.081-5.82-0.36-11.67-0.84-17.55v-0.96   c0.639-0.159,1.189-0.47,1.649-0.93c0.46-0.459,0.88-0.97,1.26-1.53c0.38-0.56,0.75-1.129,1.11-1.71   c0.36-0.579,0.76-1.089,1.2-1.53c0.439-0.44,0.939-0.77,1.5-0.99c0.56-0.219,1.26-0.25,2.1-0.09c2.16-0.24,4.28-0.53,6.36-0.87   c2.079-0.339,4.149-0.66,6.21-0.96c2.06-0.3,4.14-0.56,6.24-0.78C662.514,461.764,664.663,461.653,666.863,461.653z    M637.644,468.493l-2.88,2.88c0,2.92,0.09,5.951,0.271,9.09c0.18,3.141,0.329,6.32,0.449,9.54c0.12,3.22,0.15,6.46,0.09,9.72   c-0.06,3.261-0.329,6.47-0.81,9.63l3.9-3.9v-5.82c-0.48-2.439-0.761-4.98-0.841-7.62s-0.09-5.3-0.029-7.98   c0.06-2.679,0.109-5.33,0.149-7.95C637.983,473.464,637.884,470.934,637.644,468.493z M654.204,504.433   c-1.721,0-3.471,0.04-5.25,0.12c-1.78,0.08-3.521,0.33-5.221,0.75s-3.32,1.089-4.859,2.01c-1.541,0.92-2.91,2.24-4.11,3.96   c2.919-0.48,5.79-0.92,8.61-1.32c2.819-0.4,5.449-0.6,7.89-0.6c0.72,0,1.399-0.141,2.04-0.42c0.64-0.28,1.23-0.54,1.77-0.78   c0.54-0.24,1.051-0.381,1.53-0.42c0.48-0.041,0.96,0.18,1.44,0.66c0.479,0,0.859-0.11,1.14-0.33c0.279-0.22,0.51-0.52,0.69-0.9   c0.18-0.38,0.35-0.81,0.51-1.29c0.159-0.48,0.36-0.96,0.6-1.44H654.204z M639.624,466.513c-0.24,2.2-0.381,4.4-0.42,6.6   c-0.041,2.2-0.03,4.42,0.029,6.66c0.061,2.241,0.14,4.521,0.24,6.84c0.1,2.32,0.15,4.701,0.15,7.14c0,1.48,0.159,2.99,0.479,4.53   c0.32,1.541,0.48,3.291,0.48,5.25c0.52-0.48,1.01-0.879,1.47-1.2c0.459-0.319,0.93-0.24,1.41,0.24c0.479,0.48,0.56,0.76,0.24,0.84   c-0.321,0.081-0.721,0.12-1.2,0.12h4.859c2.48,0,5.04-0.04,7.681-0.12c2.64-0.08,4.959-0.36,6.96-0.84   c0.479-0.48,0.75-1.07,0.81-1.77c0.061-0.699,0.061-1.419,0-2.16c-0.06-0.74-0.11-1.449-0.149-2.13c-0.041-0.68,0.06-1.26,0.3-1.74   l-1.98-1.02c-0.479,0.24-1.06,0.49-1.739,0.75c-0.681,0.26-1.381,0.51-2.101,0.75c-0.72,0.24-1.431,0.48-2.13,0.72   c-0.7,0.24-1.29,0.48-1.77,0.72c-0.721-0.48-1.141-1.01-1.261-1.59c-0.12-0.579-0.149-1.179-0.09-1.8   c0.061-0.62,0.09-1.23,0.09-1.83s-0.239-1.14-0.72-1.62c0.24-0.24,0.34-0.579,0.3-1.02c-0.04-0.439-0.09-0.9-0.149-1.38   c-0.061-0.48-0.051-0.939,0.029-1.38c0.08-0.44,0.36-0.78,0.841-1.02c0.96,0,2.13-0.04,3.51-0.12c1.38-0.08,2.79-0.379,4.229-0.9   c0.48-0.24,0.8-0.58,0.96-1.02c0.16-0.439,0.21-0.909,0.15-1.41c-0.061-0.5-0.201-0.969-0.42-1.41c-0.221-0.44-0.45-0.78-0.69-1.02   c-0.96,0-1.87,0.11-2.729,0.33c-0.861,0.22-1.721,0.48-2.58,0.78c-0.86,0.3-1.73,0.621-2.61,0.96c-0.88,0.34-1.8,0.63-2.76,0.87   c-0.48-1-0.761-2.19-0.84-3.57c-0.081-1.38-0.12-2.79-0.12-4.23c-0.201,0-0.381-0.039-0.54-0.12c-0.32-0.16-0.48-0.459-0.48-0.9   c0.48-0.24,0.811-0.529,0.99-0.87c0.181-0.339,0.3-0.69,0.36-1.05c0.06-0.36,0.12-0.709,0.18-1.05c0.061-0.339,0.21-0.63,0.45-0.87   c1.2-0.24,2.46-0.379,3.78-0.42c1.319-0.04,2.649-0.06,3.989-0.06s2.671-0.02,3.99-0.06c1.32-0.039,2.58-0.18,3.78-0.42   c0-0.48-0.051-0.969-0.15-1.47c-0.1-0.5-0.18-0.99-0.239-1.47c-0.061-0.48-0.07-0.969-0.03-1.47c0.039-0.5,0.18-0.99,0.42-1.47   c-4.36,0.48-8.69,1.011-12.99,1.59C647.594,464.784,643.503,465.553,639.624,466.513z M651.264,471.373   c0.72,0,1.449-0.039,2.19-0.12c0.739-0.08,1.479-0.12,2.22-0.12c0.739,0,1.47,0.081,2.189,0.24c0.721,0.161,1.44,0.48,2.16,0.96   c0.48,0,0.96,0.03,1.44,0.09c0.479,0.06,0.899,0.06,1.26,0s0.649-0.24,0.87-0.54c0.22-0.3,0.33-0.81,0.33-1.53   c-0.96,0.24-1.98,0.34-3.061,0.3c-1.079-0.04-2.159-0.09-3.239-0.15c-1.08-0.06-2.16-0.05-3.24,0.03   C653.304,470.614,652.263,470.893,651.264,471.373z M654.204,486.973v1.92c0.239-0.24,0.639-0.339,1.199-0.3   c0.561,0.04,1.141,0.03,1.74-0.03c0.601-0.06,1.17-0.259,1.71-0.6c0.54-0.339,0.931-0.99,1.17-1.95c-1,0-1.971,0.041-2.91,0.12   C656.174,486.214,655.203,486.493,654.204,486.973z"/>
	<path d="M700.823,463.093h1.86c0,0.44,0.159,0.84,0.479,1.2c0.32,0.36,0.71,0.681,1.17,0.96c0.46,0.28,0.96,0.53,1.5,0.75   c0.54,0.22,1.029,0.45,1.471,0.69l0.899,0.9c-0.479,0.681-0.98,1.32-1.5,1.92c-0.521,0.6-1.011,1.18-1.47,1.74   c-0.46,0.561-0.84,1.14-1.14,1.74c-0.301,0.6-0.45,1.26-0.45,1.98c-0.921-0.24-1.73-0.15-2.43,0.27   c-0.701,0.42-1.371,0.891-2.011,1.41c-0.64,0.52-1.26,0.93-1.859,1.23c-0.601,0.3-1.24,0.23-1.92-0.21   c-1.841,0-3.671,0.411-5.49,1.23c-1.821,0.82-3.65,1.93-5.49,3.33c0,0.92-0.09,1.84-0.27,2.76c-0.181,0.92-0.33,1.83-0.45,2.73   s-0.15,1.811-0.09,2.73c0.06,0.921,0.33,1.84,0.81,2.76c0.439,0.48,0.95,0.93,1.53,1.35c0.579,0.42,1.209,0.771,1.89,1.05   c0.68,0.28,1.42,0.46,2.22,0.54c0.8,0.081,1.66,0,2.58-0.24l1.86-0.84c-0.921-0.52-1.99-0.78-3.21-0.78   c-1.221,0-2.29,0.261-3.21,0.78c-0.48-0.48-0.711-1-0.69-1.56c0.02-0.56,0.09-1.13,0.21-1.71c0.12-0.58,0.2-1.14,0.24-1.68   c0.039-0.54-0.16-1.029-0.6-1.47l9.06-7.32c0.48,0.441,0.95,0.701,1.41,0.78c0.459,0.081,0.93,0.12,1.41,0.12   c2.28,0.44,4.509,0.66,6.689,0.66c2.18,0,4.19-0.219,6.03-0.66c0.24,1.161,0.24,2.26,0,3.3c-0.24,1.041-0.471,2.07-0.689,3.09   c-0.221,1.02-0.33,2.061-0.33,3.12c0,1.061,0.339,2.17,1.02,3.33c-0.44,0.681-0.711,1.48-0.81,2.4   c-0.101,0.921-0.24,1.811-0.42,2.67c-0.181,0.861-0.501,1.59-0.96,2.19c-0.461,0.6-1.251,0.9-2.37,0.9   c-0.441,0.44-0.75,0.939-0.931,1.5c-0.18,0.56-0.359,1.119-0.54,1.68c-0.18,0.56-0.42,1.12-0.72,1.68   c-0.3,0.56-0.79,1.08-1.47,1.56c-0.72-0.48-1.551-0.67-2.49-0.57c-0.94,0.1-1.83,0.18-2.67,0.24s-1.56-0.041-2.16-0.3   c-0.6-0.26-0.899-0.95-0.899-2.07c-0.921,0.68-1.881,1.1-2.881,1.26c-1,0.159-2.01,0.21-3.029,0.15   c-1.021-0.06-2.031-0.171-3.03-0.33c-1-0.16-1.96-0.24-2.88-0.24c-1.4-0.68-2.811-1.38-4.23-2.1c-1.42-0.72-2.76-1.541-4.02-2.46   c-1.26-0.92-2.381-1.97-3.36-3.15c-0.98-1.179-1.69-2.569-2.13-4.17c-0.921-2.959-1.12-5.709-0.6-8.25   c0.52-2.54,1.399-4.959,2.64-7.26c1.239-2.3,2.689-4.5,4.35-6.6s3.17-4.17,4.53-6.21h0.96c1.359-1.12,2.83-2.16,4.41-3.12   s3.189-1.689,4.83-2.19c1.64-0.5,3.3-0.72,4.98-0.66C697.644,461.683,699.264,462.173,700.823,463.093z M674.424,480.373   l-2.761,3.72c-0.239,1.36-0.449,2.82-0.63,4.38c-0.18,1.56-0.21,3.101-0.09,4.62c0.12,1.521,0.439,3,0.96,4.44   c0.52,1.44,1.359,2.721,2.521,3.84c1.599,1.161,3.289,2.181,5.069,3.06c1.779,0.879,3.62,1.52,5.521,1.92   c1.899,0.399,3.8,0.51,5.7,0.33c1.898-0.18,3.77-0.73,5.609-1.65l3.66-4.56c-0.44,0.921-0.99,1.59-1.65,2.01   c-0.659,0.42-1.36,0.74-2.1,0.96c-0.74,0.22-1.5,0.43-2.28,0.63c-0.779,0.2-1.51,0.52-2.189,0.96   c-1.401,0.24-2.631,0.129-3.69-0.33c-1.061-0.46-2.07-1.029-3.03-1.71c-0.96-0.68-1.93-1.359-2.909-2.04   c-0.981-0.68-2.051-1.14-3.21-1.38l-4.5-8.16C673.543,487.774,673.543,484.093,674.424,480.373z M680.783,470.353   c-2.28,2.76-3.87,5.92-4.77,9.48c-0.9,3.561-1.131,7.42-0.69,11.58l4.62,6.3c0.92,0.48,1.79,1.08,2.61,1.8   c0.819,0.72,1.68,1.39,2.58,2.01c0.899,0.621,1.879,1.121,2.939,1.5c1.06,0.381,2.289,0.45,3.69,0.21   c1.08,0.16,2.01,0.081,2.79-0.24c0.779-0.32,1.489-0.77,2.13-1.35c0.64-0.579,1.22-1.239,1.74-1.98   c0.519-0.74,1.039-1.47,1.56-2.19c0.52-0.72,1.069-1.389,1.65-2.01c0.579-0.62,1.249-1.089,2.01-1.41   c0.68,0.48,0.979,1.041,0.899,1.68c-0.08,0.64-0.26,1.311-0.54,2.01c-0.28,0.7-0.52,1.371-0.72,2.01c-0.2,0.64-0.08,1.18,0.36,1.62   c0.479,0.24,0.949,0.381,1.41,0.42c0.459,0.041,0.909,0.03,1.35-0.03c0.439-0.06,0.89-0.14,1.35-0.24   c0.46-0.099,0.931-0.15,1.41-0.15l0.9-6.3c-0.681-0.92-1.021-1.839-1.021-2.76c0-0.919,0.11-1.83,0.33-2.73   c0.22-0.9,0.45-1.809,0.69-2.73c0.24-0.919,0.24-1.839,0-2.76c-1.161,0.24-2.261,0.32-3.3,0.24c-1.041-0.08-2.07-0.21-3.09-0.39   c-1.021-0.18-2.062-0.36-3.12-0.54c-1.061-0.18-2.151-0.27-3.271-0.27c-0.479,0.24-0.851,0.58-1.109,1.02   c-0.261,0.44-0.471,0.91-0.631,1.41c-0.16,0.501-0.31,1.02-0.449,1.56c-0.141,0.54-0.33,1.05-0.57,1.53   c0.439,0,0.699,0.04,0.78,0.12c0.079,0.081,0.12,0.34,0.12,0.78h3.72c0.68,0.48,0.96,0.951,0.84,1.41   c-0.12,0.46-0.41,0.91-0.87,1.35c-0.46,0.441-0.98,0.891-1.56,1.35c-0.581,0.46-0.99,0.93-1.23,1.41c-0.44,0.44-0.94,0.87-1.5,1.29   c-0.561,0.42-1.16,0.75-1.8,0.99c-0.641,0.24-1.301,0.34-1.98,0.3c-0.681-0.04-1.36-0.3-2.04-0.78c-0.68-0.24-1.4-0.489-2.159-0.75   c-0.761-0.26-1.461-0.62-2.101-1.08c-0.64-0.459-1.16-1.059-1.56-1.8c-0.4-0.74-0.601-1.689-0.601-2.85   c-0.2-0.639-0.27-1.299-0.21-1.98c0.061-0.68,0.15-1.329,0.271-1.95c0.12-0.62,0.199-1.209,0.24-1.77   c0.039-0.56-0.061-1.08-0.301-1.56c0.721-0.68,1.23-1.4,1.53-2.16c0.3-0.759,0.57-1.509,0.811-2.25c0.239-0.74,0.51-1.43,0.81-2.07   c0.3-0.64,0.81-1.2,1.53-1.68c0.879-0.72,1.929-1.35,3.149-1.89c1.22-0.54,2.48-0.919,3.78-1.14c1.3-0.22,2.61-0.25,3.93-0.09   c1.32,0.161,2.56,0.6,3.721,1.32l3.659-4.68c-0.239-0.68-0.659-1.209-1.26-1.59c-0.6-0.38-1.19-0.71-1.77-0.99   c-0.58-0.279-1.05-0.56-1.41-0.84c-0.36-0.279-0.44-0.66-0.24-1.14c-1.8-1.119-3.61-1.669-5.43-1.65   c-1.82,0.021-3.58,0.4-5.28,1.14c-1.7,0.74-3.34,1.74-4.92,3C683.612,467.683,682.143,468.994,680.783,470.353z M690.863,474.013   c-0.479,0.24-0.99,0.58-1.53,1.02c-0.54,0.44-1.04,0.91-1.5,1.41c-0.46,0.5-0.84,1.02-1.14,1.56c-0.3,0.54-0.45,1.03-0.45,1.47   c0.48-0.439,1-0.79,1.561-1.05c0.56-0.26,1.119-0.47,1.68-0.63c0.56-0.159,1.119-0.309,1.68-0.45c0.56-0.14,1.06-0.31,1.5-0.51   c0.68-0.24,1.41-0.35,2.19-0.33c0.78,0.021,1.509,0.03,2.189,0.03c0.68,0,1.29-0.09,1.83-0.27s0.91-0.609,1.11-1.29   c-0.44-0.439-1.041-0.74-1.8-0.9c-0.761-0.16-1.57-0.24-2.431-0.24s-1.72,0.03-2.579,0.09   C692.312,473.983,691.543,474.013,690.863,474.013z M694.523,484.093l-5.521,4.56c0.24,0.24,0.37,0.471,0.391,0.69   c0.02,0.22,0,0.44-0.061,0.66c-0.06,0.22-0.13,0.45-0.21,0.69c-0.08,0.24-0.12,0.48-0.12,0.72c0.92-0.24,1.681-0.63,2.28-1.17   c0.601-0.54,1.1-1.16,1.5-1.86c0.399-0.7,0.729-1.419,0.99-2.16C694.033,485.483,694.283,484.774,694.523,484.093z    M692.663,490.393l-1.8,2.82c0.88,0,1.63,0.04,2.25,0.12c0.62,0.081,1.39,0.321,2.311,0.72l1.859-2.64   c-0.921,0-1.69-0.039-2.31-0.12C694.353,491.213,693.583,490.914,692.663,490.393z M698.184,507.793   c0.439,0.24,0.89,0.339,1.35,0.3c0.46-0.041,0.92-0.12,1.38-0.24c0.46-0.12,0.92-0.21,1.38-0.27s0.91,0.01,1.351,0.21   c0.439-0.44,0.729-1.08,0.87-1.92c0.14-0.84,0.47-1.72,0.989-2.64c-0.72-0.48-1.42-0.59-2.1-0.33c-0.681,0.26-1.33,0.67-1.95,1.23   s-1.21,1.2-1.77,1.92C699.123,506.773,698.623,507.353,698.184,507.793z M701.844,499.573l-2.7,3.66   c-0.16,0.16-0.28,0.34-0.36,0.54c-0.08,0.201-0.101,0.41-0.06,0.63c0.039,0.219,0.18,0.429,0.42,0.63   c0.199-0.44,0.459-0.85,0.78-1.23c0.319-0.38,0.619-0.759,0.899-1.14c0.279-0.379,0.52-0.819,0.72-1.32   C701.743,500.843,701.844,500.254,701.844,499.573z"/>
	<path d="M748.343,461.653c-0.479,0.48-0.76,1.07-0.84,1.77c-0.08,0.7-0.09,1.45-0.029,2.25c0.06,0.8,0.119,1.6,0.18,2.4   c0.06,0.801-0.03,1.56-0.271,2.28c-0.239,0.24-0.44,0.54-0.6,0.9c-0.16,0.36-0.3,0.72-0.42,1.08c-0.12,0.36-0.25,0.72-0.39,1.08   c-0.141,0.36-0.33,0.66-0.57,0.9c-1.2,0.24-2.36,0.18-3.48-0.18c-1.12-0.36-2.22-0.72-3.3-1.08s-2.181-0.59-3.3-0.69   c-1.12-0.1-2.301,0.21-3.54,0.93v6.84c0.96-0.24,1.88-0.53,2.76-0.87c0.88-0.339,1.75-0.66,2.61-0.96   c0.859-0.3,1.72-0.56,2.58-0.78c0.859-0.219,1.77-0.33,2.729-0.33c0.48,0.48,0.811,1.03,0.99,1.65c0.18,0.621,0.3,1.26,0.36,1.92   c0.06,0.66,0.12,1.36,0.18,2.1c0.06,0.741,0.21,1.47,0.45,2.19c-0.48,0-0.91,0.16-1.29,0.48c-0.381,0.321-0.72,0.72-1.021,1.2   c-0.3,0.48-0.58,1-0.84,1.56c-0.261,0.561-0.51,1.08-0.75,1.56l-4.859,0.96v2.94c0.96,0.48,1.92,0.53,2.88,0.15   c0.96-0.38,1.899-0.79,2.819-1.23c0.92-0.44,1.801-0.669,2.641-0.69c0.84-0.02,1.62,0.57,2.34,1.77c-0.24,0.72-0.381,1.5-0.42,2.34   c-0.04,0.84-0.03,1.69,0.03,2.55c0.06,0.861,0.14,1.71,0.239,2.55c0.1,0.84,0.15,1.62,0.15,2.34c-0.48,0.16-0.921,0.5-1.32,1.02   c-0.4,0.52-0.801,1.1-1.2,1.74c-0.399,0.64-0.81,1.29-1.229,1.95s-0.91,1.179-1.47,1.56c-0.561,0.38-1.2,0.56-1.92,0.54   c-0.721-0.021-1.561-0.351-2.521-0.99c-1.721,0.24-3.49,0.53-5.31,0.87c-1.821,0.339-3.671,0.66-5.551,0.96   c-1.88,0.3-3.79,0.56-5.729,0.78c-1.94,0.219-3.891,0.33-5.85,0.33c0.239-0.24,0.379-0.54,0.42-0.9c0.039-0.36,0.06-0.76,0.06-1.2   c0-0.441,0.02-0.9,0.06-1.38s0.181-0.96,0.421-1.44c0-5.839-0.041-11.67-0.12-17.49c-0.081-5.82-0.36-11.67-0.84-17.55v-0.96   c0.639-0.159,1.189-0.47,1.649-0.93c0.46-0.459,0.88-0.97,1.26-1.53c0.38-0.56,0.75-1.129,1.11-1.71   c0.36-0.579,0.76-1.089,1.2-1.53c0.439-0.44,0.939-0.77,1.5-0.99c0.56-0.219,1.26-0.25,2.1-0.09c2.16-0.24,4.28-0.53,6.36-0.87   c2.079-0.339,4.149-0.66,6.21-0.96c2.06-0.3,4.14-0.56,6.24-0.78C743.993,461.764,746.143,461.653,748.343,461.653z    M719.123,468.493l-2.88,2.88c0,2.92,0.09,5.951,0.271,9.09c0.18,3.141,0.329,6.32,0.449,9.54c0.12,3.22,0.15,6.46,0.09,9.72   c-0.06,3.261-0.329,6.47-0.81,9.63l3.9-3.9v-5.82c-0.48-2.439-0.761-4.98-0.841-7.62s-0.09-5.3-0.029-7.98   c0.06-2.679,0.109-5.33,0.149-7.95C719.463,473.464,719.363,470.934,719.123,468.493z M735.684,504.433   c-1.721,0-3.471,0.04-5.25,0.12c-1.78,0.08-3.521,0.33-5.221,0.75s-3.32,1.089-4.859,2.01c-1.541,0.92-2.91,2.24-4.11,3.96   c2.919-0.48,5.79-0.92,8.61-1.32c2.819-0.4,5.449-0.6,7.89-0.6c0.72,0,1.399-0.141,2.04-0.42c0.64-0.28,1.23-0.54,1.77-0.78   c0.54-0.24,1.051-0.381,1.53-0.42c0.48-0.041,0.96,0.18,1.44,0.66c0.479,0,0.859-0.11,1.14-0.33c0.279-0.22,0.51-0.52,0.69-0.9   c0.18-0.38,0.35-0.81,0.51-1.29c0.159-0.48,0.36-0.96,0.6-1.44H735.684z M721.104,466.513c-0.24,2.2-0.381,4.4-0.42,6.6   c-0.041,2.2-0.03,4.42,0.029,6.66c0.061,2.241,0.14,4.521,0.24,6.84c0.1,2.32,0.15,4.701,0.15,7.14c0,1.48,0.159,2.99,0.479,4.53   c0.32,1.541,0.48,3.291,0.48,5.25c0.52-0.48,1.01-0.879,1.47-1.2c0.459-0.319,0.93-0.24,1.41,0.24c0.479,0.48,0.56,0.76,0.24,0.84   c-0.321,0.081-0.721,0.12-1.2,0.12h4.859c2.48,0,5.04-0.04,7.681-0.12c2.64-0.08,4.959-0.36,6.96-0.84   c0.479-0.48,0.75-1.07,0.81-1.77c0.061-0.699,0.061-1.419,0-2.16c-0.06-0.74-0.11-1.449-0.149-2.13c-0.041-0.68,0.06-1.26,0.3-1.74   l-1.98-1.02c-0.479,0.24-1.06,0.49-1.739,0.75c-0.681,0.26-1.381,0.51-2.101,0.75c-0.72,0.24-1.431,0.48-2.13,0.72   c-0.7,0.24-1.29,0.48-1.77,0.72c-0.721-0.48-1.141-1.01-1.261-1.59c-0.12-0.579-0.149-1.179-0.09-1.8   c0.061-0.62,0.09-1.23,0.09-1.83s-0.239-1.14-0.72-1.62c0.24-0.24,0.34-0.579,0.3-1.02c-0.04-0.439-0.09-0.9-0.149-1.38   c-0.061-0.48-0.051-0.939,0.029-1.38c0.08-0.44,0.36-0.78,0.841-1.02c0.96,0,2.13-0.04,3.51-0.12c1.38-0.08,2.79-0.379,4.229-0.9   c0.48-0.24,0.8-0.58,0.96-1.02c0.16-0.439,0.21-0.909,0.15-1.41c-0.061-0.5-0.201-0.969-0.42-1.41c-0.221-0.44-0.45-0.78-0.69-1.02   c-0.96,0-1.87,0.11-2.729,0.33c-0.861,0.22-1.721,0.48-2.58,0.78c-0.86,0.3-1.73,0.621-2.61,0.96c-0.88,0.34-1.8,0.63-2.76,0.87   c-0.48-1-0.761-2.19-0.84-3.57c-0.081-1.38-0.12-2.79-0.12-4.23c-0.201,0-0.381-0.039-0.54-0.12c-0.32-0.16-0.48-0.459-0.48-0.9   c0.48-0.24,0.811-0.529,0.99-0.87c0.181-0.339,0.3-0.69,0.36-1.05c0.06-0.36,0.12-0.709,0.18-1.05c0.061-0.339,0.21-0.63,0.45-0.87   c1.2-0.24,2.46-0.379,3.78-0.42c1.319-0.04,2.649-0.06,3.989-0.06s2.671-0.02,3.99-0.06c1.32-0.039,2.58-0.18,3.78-0.42   c0-0.48-0.051-0.969-0.15-1.47c-0.1-0.5-0.18-0.99-0.239-1.47c-0.061-0.48-0.07-0.969-0.03-1.47c0.039-0.5,0.18-0.99,0.42-1.47   c-4.36,0.48-8.69,1.011-12.99,1.59C729.073,464.784,724.982,465.553,721.104,466.513z M732.743,471.373   c0.72,0,1.449-0.039,2.19-0.12c0.739-0.08,1.479-0.12,2.22-0.12c0.739,0,1.47,0.081,2.189,0.24c0.721,0.161,1.44,0.48,2.16,0.96   c0.48,0,0.96,0.03,1.44,0.09c0.479,0.06,0.899,0.06,1.26,0s0.649-0.24,0.87-0.54c0.22-0.3,0.33-0.81,0.33-1.53   c-0.96,0.24-1.98,0.34-3.061,0.3c-1.079-0.04-2.159-0.09-3.239-0.15c-1.08-0.06-2.16-0.05-3.24,0.03   C734.783,470.614,733.742,470.893,732.743,471.373z M735.684,486.973v1.92c0.239-0.24,0.639-0.339,1.199-0.3   c0.561,0.04,1.141,0.03,1.74-0.03c0.601-0.06,1.17-0.259,1.71-0.6c0.54-0.339,0.931-0.99,1.17-1.95c-1,0-1.971,0.041-2.91,0.12   C737.653,486.214,736.683,486.493,735.684,486.973z"/>
</g>
</svg>